<?xml version="1.0" encoding="utf-8"?>
<!-- Generator: Adobe Illustrator 19.0.0, SVG Export Plug-In . SVG Version: 6.00 Build 0)  -->
<svg version="1.1" id="Hand" xmlns="http://www.w3.org/2000/svg" xmlns:xlink="http://www.w3.org/1999/xlink" x="0px" y="0px"
	 viewBox="0 0 104 121.9" style="enable-background:new 0 0 104 121.9;" xml:space="preserve">
<g id="XMLID_1154_">
	<g id="Hand_2_">
		<g id="XMLID_99_">
			<path id="XMLID_100_" style="fill:#3C67B0;" d="M23.1,26.6l-10.9-6c0.4,0.5,0.8,0.9,1.2,1.5l5.6,7.6l-1.4,1L9.4,19.5l1.9-1.4
				l10.1,5.7c-0.4-0.5-0.9-1-1.2-1.5l-5.2-7l1.4-1l8.2,11.2L23.1,26.6z"/>
			<path id="XMLID_102_" style="fill:#3C67B0;" d="M32,16c1.1,2.3,1.2,5.7-1.5,7s-5.2-1.1-6.3-3.4c-1.1-2.3-1.2-5.8,1.5-7
				C28.4,11.3,31,13.7,32,16z M25.7,18.8c0.7,1.5,2.5,3.7,4.2,2.9c1.7-0.8,1.2-3.6,0.6-5.1c-0.7-1.5-2.6-3.7-4.2-2.9
				S25,17.3,25.7,18.8z"/>
			<path id="XMLID_105_" style="fill:#3C67B0;" d="M42.3,18.8l-1.9-8c-0.2-0.9-0.5-1.5-1.6-1.2c-1.2,0.3-2.5,1.3-2.9,1.8l2,8.4
				l-1.6,0.4L33.9,9.7l1.6-0.4l0.2,0.8c0.6-0.7,2-1.6,3.2-1.9c2.2-0.5,2.9,0.6,3.3,2.2l1.9,8L42.3,18.8z"/>
			<path id="XMLID_107_" style="fill:#3C67B0;" d="M50.2,13L46,13.2l-0.1-1.3l4.2-0.3L50.2,13z"/>
			<path id="XMLID_109_" style="fill:#3C67B0;" d="M57.5,5.8l-0.9,12.3L54.9,18l0.9-12.3l-3.4-0.2l0.1-1.5L61,4.5l-0.1,1.5L57.5,5.8
				z"/>
			<path id="XMLID_111_" style="fill:#3C67B0;" d="M68.9,14.9c-0.6,2.5-2.6,5.3-5.4,4.6c-2.9-0.6-3.5-4-2.9-6.5
				c0.6-2.5,2.6-5.3,5.5-4.7C68.9,9,69.4,12.4,68.9,14.9z M62.1,13.4c-0.4,1.6-0.2,4.4,1.6,4.8c1.8,0.4,3.2-2.1,3.5-3.7
				c0.4-1.6,0.2-4.5-1.6-4.9C63.9,9.2,62.5,11.8,62.1,13.4z"/>
			<path id="XMLID_337_" style="fill:#3C67B0;" d="M74.8,23.1L74,18.2L70,21l-1.6-0.7l5.3-3.8l-0.9-6.1l1.7,0.7l0.7,4.4l3.6-2.6
				l1.6,0.7l-4.9,3.5l1.1,6.6L74.8,23.1z"/>
			<path id="XMLID_339_" style="fill:#3C67B0;" d="M79.2,25.6l-1.4-0.8l5.5-9.3l1.4,0.8L79.2,25.6z M86.1,12.3
				c0.5,0.3,0.8,1,0.5,1.6c-0.3,0.6-1.1,0.7-1.7,0.4c-0.5-0.3-0.8-1-0.5-1.6C84.8,12,85.5,11.9,86.1,12.3z"/>
			<path id="XMLID_342_" style="fill:#3C67B0;" d="M84.5,29.7c-2.4-1.9-1.6-5,0-7.1c1.6-2,4.6-3.8,7-1.9c0.8,0.6,1.4,1.6,1.5,2.6
				l-1.2,0.3c-0.1-0.7-0.6-1.4-1.1-1.9c-1.6-1.2-3.8,0.5-4.7,1.7c-1,1.3-2.3,4-0.6,5.3c0.6,0.4,1.8,0.7,2.5,0.7l-0.2,1.2
				C86.7,30.7,85.3,30.4,84.5,29.7z"/>
		</g>
		<g id="XMLID_1153_">
			
				<circle id="Circle_19_" style="fill:#FFFFFF;stroke:#3C67B0;stroke-width:1.4175;stroke-miterlimit:10;" cx="52" cy="69.2" r="40.2"/>
			
				<circle id="Circle_18_" style="fill:none;stroke:#3C67B0;stroke-width:2.8351;stroke-miterlimit:10;" cx="52" cy="69.2" r="44.2"/>
		</g>
		<path id="XMLID_1156_" style="fill:#3C67B0;" d="M84.1,79.1c-0.5-1.4-1.9-2.2-3.5-1.8c-0.7,0.2-1.3,0.5-2.8,1.8
			c-0.3,0.2-0.6,0.5-0.6,0.5c-0.2,0.1-1.2,1.3-1.5,1.8c-0.3,0.5-0.7,0.9-0.9,0.9c-0.1,0-0.9,0.4-1.3,0.6c-0.2,0.1-0.5,0.2-0.7,0.3
			c-0.5,0.1-0.8,0.2-1,0.4c-0.1,0.1-0.1,0.1-0.2,0.1c-0.1,0-0.2,0.1-0.2,0.1c-0.1,0.1-0.3,0.2-0.5,0.3c-0.2,0.1-0.4,0.2-0.4,0.2
			c0,0-0.2,0.1-0.4,0.2c-0.2,0.1-0.5,0.2-0.6,0.3c-0.5,0.4-0.6,0.5-0.9,0.7c-0.2,0.1-0.4,0.2-0.5,0.3c-0.1,0.1-0.2,0.1-0.2,0.1
			c-0.1,0-0.8-0.5-1.1-0.9c-0.1-0.1-0.4-0.3-0.6-0.4c-0.2-0.1-0.4-0.3-0.4-0.5c-0.1-0.2-0.3-0.5-0.5-0.7c-0.2-0.2-0.7-0.7-1-1
			c-0.3-0.4-0.8-0.8-0.9-0.9c-0.4-0.3-0.4-0.1,0.3-1.9c0.5-1.4,0.8-2.4,0.9-3.3c0.1-0.4,0.1-0.7,0.3-1c0.3-0.5,0.4-1.3,0.4-2.1
			c0-0.6,0-1,0.3-1.5c0.4-0.9,0.6-1.7,0.4-2.3c-0.1-0.5-0.1-0.5,0.3-1.7c0.3-0.8,0.5-1.3,0.7-1.5c0.3-0.3,0.3-0.5,0.3-1
			c0-0.4-0.3-1.1-0.5-1.2c-0.1-0.1-0.1-0.7,0-1.1c0-0.1,0.3-0.5,0.5-0.7c0.2-0.3,0.4-0.5,0.4-0.5c0,0,0.1-0.3,0.2-0.5
			c0.1-0.3,0.3-0.8,0.4-1.1c0.1-0.4,0.4-1,0.5-1.5c0.5-1.3,1.1-3,1.4-3.9c0.1-0.4,0.4-1.2,0.7-1.7c0.5-1.1,0.6-1.7,0.7-2.9
			c0.1-1.8-0.5-3.1-1.8-3.9C69,46,68.9,46,68.1,45.9c-1.3-0.1-2.1,0.4-2.8,1.6c-0.3,0.6-0.3,0.6-0.4,1.9c-0.1,1.2-0.1,1.6-0.4,2.2
			c-0.1,0.3-0.3,1.5-0.3,1.8c0,0.1,0,0.5-0.1,0.8c-0.4,2.2-0.6,3.4-0.7,5c-0.1,1.6-0.1,1.6-0.7,2c-0.7,0.5-1.2,1.1-1.4,1.6
			c-0.1,0.2-0.2,0.4-0.2,0.4c-0.3,0.4-0.9,2.2-1.3,4.3c-0.1,0.5-0.2,1-0.2,1c0,0.1-0.3,0.1-0.8,0.1c-0.6,0-0.8,0-1.3,0.2
			c-0.5,0.2-0.5,0.2-0.9-0.1c-0.8-0.6-1.2-0.7-2.6-0.7c-1.6-0.1-2,0-2.7,0.7c-0.8,0.7-1,1.2-1.1,2.4c0,0.5-0.1,1-0.1,1.1
			c-0.1,0.1-0.1,0.3-0.1,0.4c0,0.2-0.2,0.4-0.5,0.4c-0.2,0-0.3-0.1-0.7-0.6c-1-1.2-1.7-1.2-3-0.2c-0.4,0.3-0.7,0.5-1,0.5
			c-0.6,0.1-0.9,0.3-1,0.5c0,0.1-0.1,0.1-0.2,0.1c-0.1,0-0.6,0.5-0.9,0.9c-0.2,0.3-0.2,0.3-0.5,0.1c-0.4-0.2-1.5-0.3-2.1-0.1
			c-0.9,0.3-1.7,0.9-2.1,1.7c-0.1,0.2-0.3,0.5-0.5,0.7c-0.5,0.7-0.5,0.9-0.6,2.3c-0.1,2.6-0.1,3.4,0.1,3.9c0.2,0.4,0.7,0.9,0.9,1
			c0.2,0,0.3,0.3,0.5,1c0.2,0.9,0.6,1.7,0.9,1.9c0.1,0.1,0.2,0.3,0.3,0.5c0.1,0.2,0.3,0.6,0.5,0.8c0.2,0.3,0.3,0.4,0.3,0.6
			c0,0.4,0.1,1.1,0.3,1.4c0.2,0.3,0.2,0.4,0.2,1.4c0,1.2,0,1.4,0.5,2.3c0.2,0.4,0.2,0.5,0.3,1.5c0.1,2.1,0.2,2.4,0.3,2.9
			c0.2,0.5,0.6,1.2,1.4,2.1c0.8,0.9,1.2,1.1,2.4,1.3c0.5,0.1,1,0.2,1.2,0.2c1.6,0.3,2.5,0.1,3.8-0.7c0.7-0.4,1.1-0.5,2.8-0.6
			c0.6,0,1.4-0.1,1.9-0.1c1.1-0.1,2-0.2,2.7-0.3c0.5,0,0.6-0.1,1.2-0.3c0.1,0,0.5-0.1,0.9-0.2c0.9-0.2,1.8-0.5,2.2-0.9
			c0.2-0.2,0.6-0.4,0.8-0.6c0.2-0.1,0.5-0.3,0.6-0.5c0.2-0.3,0.5-0.4,0.7-0.4c0.3,0,1.5-0.6,1.9-0.9c0.2-0.2,0.5-0.3,0.6-0.4
			c0.2-0.1,0.4-0.2,0.5-0.3c0.1-0.1,0.3-0.2,0.6-0.3c0.2-0.1,0.5-0.2,0.7-0.3c0.2-0.1,0.3-0.2,0.4-0.2c0.1,0,0.2,0,0.3-0.1
			c0.1-0.1,0.2-0.1,0.2-0.1c0.1,0,0.2-0.1,0.4-0.2c0.2-0.2,0.5-0.2,1.5-0.5c0.2,0,1-0.8,1.3-1.2c0.3-0.4,1.1-1.1,2-1.9
			c0.6-0.5,1.1-1.2,1.2-1.6c0.3-0.9,0.7-1.3,1.3-1.4c0.8-0.1,1.2-0.3,1.6-0.9c0.1-0.1,0.2-0.2,0.4-0.3c0.5-0.1,1.9-1,2.5-1.6
			c0.5-0.5,1-1.2,1.2-1.8c1.1-2.4,1.3-3,1-3.9C84.1,79.3,84.1,79.2,84.1,79.1L84.1,79.1z M55.9,41.1c-0.1-0.3-0.3-0.5-0.5-0.8
			c-1-1.3-2.9-1.1-3.9,0.3c-0.4,0.6-0.5,0.9-0.5,2.1c0,0.5,0,1.5,0,2.1c0,0.6,0,1.4,0.1,1.7c0,0.3,0.1,0.9,0.1,1.2
			c0,0.5,0.2,2.2,0.3,2.4c0,0,0,0.7,0,1.4c0,1.2,0,1.4,0.2,1.8c0.2,0.5,0.1,2.4-0.1,3.6c-0.1,0.6-0.1,0.8-0.1,1.7
			c0,0.5,0.1,1.7,0,2.5c0,1.5,0,1.5,0.3,2.1c0.5,1,0.5,0.9,1.5,1.1c0.5,0.1,0.9,0.1,0.9,0.1c0.1,0,0.3-0.2,0.3-0.4
			c0-0.1,0.2-0.3,0.6-0.6c0.8-0.6,0.9-0.8,1-3c0.1-1.7,0.1-1.7-0.1-2.1c-0.1-0.3-0.2-0.4-0.1-0.6c0-0.1,0-0.3,0-0.5
			c-0.1-0.2-0.1-0.6-0.1-1.5c0.1-1.1,0.1-1.2,0.3-1.5c0.2-0.3,0.2-0.4,0.3-2.2c0-1,0.1-2.4,0.1-3.2c0-0.8,0-2.4,0-3.6
			C56.4,43.1,56.3,42,55.9,41.1L55.9,41.1z M41.7,46.9c-0.3-0.8-1-1.5-2-2.1c-0.5-0.3-1.6-0.3-2.1,0c-0.9,0.5-1.1,1.6-0.8,3.2
			c0.1,0.4,0.1,1.1,0.2,1.6c0,1,0.1,1.3,0.3,2.1c0.1,0.5,0.3,0.8,0.7,1.8c0.1,0.2,0.4,1.1,0.7,2c0.3,0.9,0.6,1.7,0.7,2
			c0.1,0.2,0.3,0.9,0.4,1.5c0.3,1.2,1,3,1.6,3.9c0.4,0.6,0.5,0.7,0.8,1.8c0.6,2.2,0.8,2.4,1.4,3c0.2,0.2,0.4,0.3,0.5,0.3
			c0.4,0,1.5-1.6,1.3-1.9c-0.1-0.2-0.5-1.6-0.6-2.2c-0.1-0.4-0.1-0.5,0-0.6c0.1-0.2,0-0.9-0.3-1.9c-0.5-1.6-0.9-3.3-0.9-3.7
			c0-0.3,0-1-0.2-1.9c0-0.2-0.2-0.6-0.4-1c-0.3-0.7-0.3-0.7-0.2-1.8C42.8,50.9,42.5,48.9,41.7,46.9L41.7,46.9z M35.9,71.5
			c-0.3-0.9-1-1.6-2.1-2.4c-0.4-0.3-0.8-0.5-0.9-0.6c-0.3-0.3-1.2-0.9-1.8-1.2c-0.3-0.2-0.6-0.4-0.8-0.5c-0.1-0.1-0.4-0.3-0.5-0.4
			c-0.2-0.1-0.4-0.3-0.4-0.3c-0.1-0.1-0.4-0.3-0.7-0.5c-0.8-0.5-1-0.6-1.1-1c-0.1-0.4-0.1-0.4-0.7-0.3c-0.4,0-0.6,0-0.7,0
			c-0.2-0.1-0.2-0.1-0.5,0.1c-0.4,0.3-0.5,0.7-0.6,1.6c-0.1,1.2,0.2,1.7,1.6,2.4c0.1,0,0.2,0.3,0.4,0.6c0.4,0.7,1.5,1.9,3.1,3.5
			c0.6,0.6,1.9,2.3,2,2.8c0.1,0.4,0.5,0.8,0.9,1c0.3,0.2,1.1,0.1,1.6-0.1c0.8-0.4,1.4-1.8,1.4-3.3C36.1,72.3,36,71.9,35.9,71.5
			L35.9,71.5z M35.9,71.5"/>
	</g>
</g>
</svg>
