<?xml version="1.0" encoding="utf-8"?>
<!-- Generator: Adobe Illustrator 19.0.0, SVG Export Plug-In . SVG Version: 6.00 Build 0)  -->
<svg version="1.1" id="Leaf" xmlns="http://www.w3.org/2000/svg" xmlns:xlink="http://www.w3.org/1999/xlink" x="0px" y="0px"
	 viewBox="0 0 110 121" style="enable-background:new 0 0 110 121;" xml:space="preserve">
<g id="Leaf_4_">
	<g id="XMLID_1125_">
		<circle id="XMLID_109_" style="fill:none;" cx="55" cy="72.3" r="52"/>
		<path id="XMLID_81_" style="fill:#3C67B0;" d="M8.6,27.5l-3.5,4.1l3.3,2.9l2.7-3.1l1.2,1l-2.7,3.1l3.8,3.2l3.6-4.3l1.2,1L13.3,41
			L2.8,32l4.6-5.4L8.6,27.5z"/>
		<path id="XMLID_83_" style="fill:#3C67B0;" d="M22.7,31.9c-2.3,1.9-5.2,0.5-6.9-1.5c-1.6-2-2.7-5.3-0.4-7.2c0.7-0.6,1.9-1,2.9-1
			l0.1,1.2c-0.7,0-1.5,0.3-2.1,0.7c-1.5,1.3-0.3,3.8,0.7,5c1.1,1.3,3.4,3,5,1.7c0.6-0.5,1-1.6,1.2-2.3l1.1,0.4
			C24.1,30,23.5,31.3,22.7,31.9z"/>
		<path id="XMLID_85_" style="fill:#3C67B0;" d="M30.5,20.2c1.2,2.2,1.6,5.6-0.9,7.1c-2.6,1.5-5.3-0.6-6.5-2.8
			c-1.2-2.2-1.7-5.7,0.9-7.1C26.5,15.8,29.3,18,30.5,20.2z M24.5,23.6c0.8,1.4,2.8,3.4,4.4,2.5c1.6-0.9,0.9-3.7,0.1-5.1
			c-0.8-1.4-2.9-3.5-4.5-2.6C23,19.3,23.7,22.2,24.5,23.6z"/>
		<path id="XMLID_88_" style="fill:#3C67B0;" d="M37,18.2l-3.9,1.5l-0.5-1.2l3.9-1.5L37,18.2z"/>
		<path id="XMLID_90_" style="fill:#3C67B0;" d="M44.8,8.5l-4.6,1l0.9,4.3l3.7-0.8l0.3,1.5l-3.7,0.8l1.4,6.3l-1.7,0.4l-3-13.5
			l6.4-1.4L44.8,8.5z"/>
		<path id="XMLID_92_" style="fill:#3C67B0;" d="M53.4,10.9c0,0-0.4-0.3-1-0.2c-0.7,0.1-1.3,0.8-1.8,1.3l0.6,8.4l-1.7,0.1L48.8,9.8
			l1.7-0.1l0.1,0.9c0.4-0.5,0.9-1.3,2.2-1.4c0.6,0,1.1,0.3,1.1,0.3L53.4,10.9z"/>
		<path id="XMLID_94_" style="fill:#3C67B0;" d="M57.8,20.3l-1.6-0.1l0.4-10.8l1.6,0.1L57.8,20.3z M57.5,5.3c0.6,0,1.2,0.5,1.2,1.2
			c0,0.7-0.7,1.1-1.3,1.1c-0.6,0-1.2-0.5-1.2-1.2C56.2,5.8,56.8,5.3,57.5,5.3z"/>
		<path id="XMLID_97_" style="fill:#3C67B0;" d="M62.9,14.8c0,0.1,0,0.3-0.1,0.4c-0.3,1.5-0.2,4.6,1.8,4.9c0.8,0.1,2.5-0.5,3.3-0.8
			l0.3,1.1c-1.1,0.6-2.8,1.2-4,0.9c-3.1-0.6-3.5-4.1-3-6.7c0.5-2.6,2.6-5.1,5.5-4.5c2.1,0.4,3.2,2.7,3,4.7c0,0.4-0.1,0.7-0.2,1.1
			L62.9,14.8z M66.3,11.5c-1.4-0.2-2.5,1-2.9,2.1l4.6,0.8C68.2,13.2,67.7,11.7,66.3,11.5z"/>
		<path id="XMLID_100_" style="fill:#3C67B0;" d="M76.1,24.7l3-7.6c0.4-0.9,0.4-1.5-0.6-1.9c-1.1-0.4-2.8-0.4-3.4-0.1L72,23
			l-1.6-0.6l3.9-10l1.6,0.6l-0.3,0.7c0.9-0.2,2.6-0.2,3.7,0.2c2.1,0.8,2,2.2,1.4,3.7l-3,7.6L76.1,24.7z"/>
		<path id="XMLID_102_" style="fill:#3C67B0;" d="M86.6,31.2c-0.4-0.3-0.7-0.5-0.8-1c-0.1-0.5,0.1-1.1,0.4-1.5c-1,0.9-2.5,0.7-3.5,0
			c-2.2-1.5-1.7-4.5-0.4-6.4c1.7-2.7,4.3-4.7,7.3-2.8c0.6,0.4,1.1,0.9,1.6,1.4l2.5-3.8l1.4,0.9l-7.3,11.1c-0.2,0.4-0.7,1-0.2,1.4
			L86.6,31.2z M90.4,22.1c-0.3-0.5-0.9-1.1-1.4-1.4c-2.2-1.5-4,0.6-5.1,2.3c-0.8,1.2-1.8,3.7-0.2,4.7c1.5,1,3.6-0.6,4.4-1.8
			L90.4,22.1z"/>
		<path id="XMLID_105_" style="fill:#3C67B0;" d="M93,30.6c-1,1.1-1.8,2.3-2.4,3.7l-1.3-1.2c0.5-1.2,1.6-2.7,2.5-3.6l7.3-8.2
			l1.2,1.1L93,30.6z"/>
		<path id="XMLID_107_" style="fill:#3C67B0;" d="M92.1,39.8c-1,0-1.9-0.5-2.7-1.1l0.7-1.1c0.5,0.4,1.2,0.5,1.8,0.6
			c0.6,0.1,1.4-0.1,2-0.2l5.7-10.2l1.1,1.3L97,35.7c-0.4,0.6-0.8,1.3-1.3,1.9c3.1-1,6.1-2.3,9-3.8l1.1,1.3
			C102.5,36.7,95.6,39.8,92.1,39.8z"/>
	</g>
	<g id="XMLID_1155_">
		
			<circle id="Circle_21_" style="fill:#FFFFFF;stroke:#3C67B0;stroke-width:1.4175;stroke-miterlimit:10;" cx="55.9" cy="71.5" r="40.2"/>
		
			<circle id="Circle_20_" style="fill:none;stroke:#3C67B0;stroke-width:2.8351;stroke-miterlimit:10;" cx="55.9" cy="71.5" r="44.2"/>
	</g>
	<path id="Leaf_3_" style="fill:#3C67B0;" d="M65.8,36.1c0,0,0.5,5.2-3.7,10.9c-4.3,5.8-16.5,13.5-22.6,26.7
		c-6.2,13.1,0.8,22.9,3.9,25.5c1.8,1.5,3.8,1.5,5.3,1.2c-1.2-2.4-2.2-5.1-2.8-8c-1.7-11.9,5.6-21.6,6.7-23.3
		c0.6-0.9,1.8-2.5,3.3-4.2c1.5-1.7,3.1-3.7,4.5-5.8c2.8-4.1,4.8-8.1,4.8-8.1c0,0-1.6,4.2-3.9,8.7c-1.1,2.2-2.6,4.6-4,6.4
		c-1.3,1.9-2.4,3.4-2.9,4.3c-0.6,0.9-2.5,3.6-3.9,7.5c-0.7,2-1.3,4.2-1.8,6.8c-0.5,2.3-0.4,4.8,0.2,7.2c1,4.2,3.1,8,5.1,10.9
		c1.8,0.4,4.3,0.1,7.8-2.3c2.7-2.5,4.8-5.1,6.6-7.8l-4.8-3.9l7.2-0.2c1.6-3.3,2.7-6.6,3.4-10l-7.1-0.4l7.8-4.2
		c0.4-4.6,0.1-9.1-0.5-13.3l-6.3,2.8l-0.1,0l0,0l-0.7,0.3l6.3-6.9C70.9,44.8,65.8,36.1,65.8,36.1z"/>
</g>
<g id="XMLID_23_">
</g>
<g id="XMLID_28_">
</g>
<g id="XMLID_110_">
</g>
<g id="XMLID_111_">
</g>
<g id="XMLID_112_">
</g>
<g id="XMLID_113_">
</g>
<g id="XMLID_114_">
</g>
<g id="XMLID_115_">
</g>
<g id="XMLID_116_">
</g>
<g id="XMLID_117_">
</g>
<g id="XMLID_118_">
</g>
<g id="XMLID_119_">
</g>
<g id="XMLID_120_">
</g>
<g id="XMLID_121_">
</g>
<g id="XMLID_122_">
</g>
</svg>
