<?xml version="1.0" encoding="utf-8"?>
<!-- Generator: Adobe Illustrator 19.0.0, SVG Export Plug-In . SVG Version: 6.00 Build 0)  -->
<svg version="1.1" id="Cell" xmlns="http://www.w3.org/2000/svg" xmlns:xlink="http://www.w3.org/1999/xlink" x="0px" y="0px"
	 viewBox="0 0 106.4 121.9" style="enable-background:new 0 0 106.4 121.9;" xml:space="preserve">
<g id="Germ_1_">
	<g id="XMLID_98_">
		<circle id="XMLID_139_" style="fill:none;" cx="53.2" cy="69.9" r="52"/>
		<path id="XMLID_93_" style="fill:#3C67B0;" d="M18.2,31.9c-2.9,2.8-6.5,0.9-8.9-1.5c-2.2-2.3-3.9-6.3-1.2-9
			c0.8-0.8,2.1-1.6,3.2-1.8l0.3,1.3c-1,0.3-1.8,0.8-2.6,1.5c-1.9,1.8,0.1,5.3,1.5,6.8c1.6,1.7,4.5,3.6,6.6,1.6
			c0.7-0.7,1.4-1.7,1.5-2.7l1.3,0.3C19.9,29.6,19.1,31,18.2,31.9z"/>
		<path id="XMLID_95_" style="fill:#3C67B0;" d="M21,23.7c0.9,1.2,1.9,2.2,3.1,3.1l-1.4,1c-1.1-0.7-2.2-2.2-3-3.2l-6.4-8.9l1.3-0.9
			L21,23.7z"/>
		<path id="XMLID_113_" style="fill:#3C67B0;" d="M30.6,17c1.2,2.2,1.4,5.7-1.2,7c-2.6,1.4-5.3-0.8-6.4-3.1
			c-1.2-2.2-1.5-5.7,1.2-7.1C26.8,12.5,29.5,14.7,30.6,17z M24.5,20.2c0.8,1.5,2.7,3.5,4.3,2.7c1.6-0.8,1.1-3.6,0.3-5.1
			s-2.7-3.6-4.4-2.7S23.7,18.7,24.5,20.2z"/>
		<path id="XMLID_116_" style="fill:#3C67B0;" d="M37.8,20.6c-1.1,0.3-2.4,0.2-3.4-0.3l0.2-1.3c0.8,0.3,2,0.6,2.8,0.3
			c1-0.3,1.9-1.1,1.5-2.2c-0.3-0.8-1-1.1-1.8-1.2l-2.5-0.4c-1.3-0.2-2.2-0.8-2.7-2.1c-0.6-1.9,1-3.3,2.7-3.8
			c1.2-0.4,2.6-0.3,3.6,0.5l-0.6,1.1c-0.8-0.4-1.9-0.6-2.7-0.3c-0.9,0.3-1.7,1-1.4,2c0.3,0.8,1.2,1,1.9,1.1l2.2,0.4
			c1.4,0.2,2.3,0.9,2.8,2.2C41.2,18.5,39.7,20,37.8,20.6z"/>
		<path id="XMLID_118_" style="fill:#3C67B0;" d="M43.8,12.7c0,0.1,0,0.3,0.1,0.4c0.2,1.5,1.2,4.4,3.1,4.2c0.8-0.1,2.2-1.2,2.9-1.7
			l0.7,1c-0.8,0.9-2.3,1.9-3.5,2.1c-3.1,0.4-4.5-2.9-4.9-5.5c-0.3-2.6,1-5.6,3.9-5.9c2.2-0.3,3.8,1.6,4.2,3.6
			c0.1,0.4,0.1,0.7,0.2,1.1L43.8,12.7z M46,8.5c-1.4,0.2-2.1,1.7-2.2,2.9l4.7-0.6C48.4,9.6,47.4,8.4,46,8.5z"/>
		<path id="XMLID_121_" style="fill:#3C67B0;" d="M61,18.7c-0.5-0.1-0.9-0.1-1.2-0.5c-0.3-0.4-0.4-1.1-0.4-1.6
			c-0.4,1.3-1.9,1.8-3.1,1.7c-2.7-0.2-3.6-3.1-3.5-5.4c0.2-3.2,1.5-6.3,5.1-6C58.6,7,59.3,7.2,60,7.4L60.3,3L62,3.1l-1,13.2
			c0,0.4-0.1,1.2,0.5,1.3L61,18.7z M59.9,8.8c-0.6-0.3-1.3-0.5-1.9-0.5c-2.7-0.2-3.2,2.4-3.4,4.5c-0.1,1.4,0.2,4.1,2.1,4.2
			c1.8,0.1,2.8-2.2,2.9-3.7L59.9,8.8z"/>
		<path id="XMLID_125_" style="fill:#3C67B0;" d="M68.4,15l-4.1-1l0.3-1.3l4.1,1L68.4,15z"/>
		<path id="XMLID_130_" style="fill:#3C67B0;" d="M74,22.6c-3.7-1.5-3.5-5.6-2.2-8.8c1.2-3,4.2-6.1,7.8-4.6c1.1,0.4,2.3,1.3,2.9,2.2
			l-1,0.8c-0.7-0.8-1.5-1.4-2.4-1.8c-2.4-1-4.8,2.2-5.6,4.1c-0.9,2.2-1.5,5.6,1.2,6.7c0.9,0.4,2.2,0.6,3.1,0.3l0.3,1.3
			C76.8,23.2,75.1,23,74,22.6z"/>
		<path id="XMLID_132_" style="fill:#3C67B0;" d="M83.1,20.2c-0.1,0.1-0.1,0.2-0.2,0.3c-0.9,1.3-2,4.1-0.3,5.2
			c0.7,0.5,2.4,0.6,3.3,0.5l-0.1,1.2c-1.2,0.2-3,0-4-0.7c-2.6-1.7-1.6-5.2-0.2-7.3c1.5-2.2,4.4-3.6,6.8-2c1.8,1.2,1.9,3.7,0.9,5.5
			c-0.2,0.3-0.4,0.6-0.6,1L83.1,20.2z M87.5,18.5c-1.2-0.8-2.6-0.1-3.5,0.8l3.9,2.6C88.6,20.9,88.7,19.3,87.5,18.5z"/>
		<path id="XMLID_135_" style="fill:#3C67B0;" d="M91,28.1c-1,1.1-1.8,2.3-2.4,3.7l-1.3-1.2c0.5-1.2,1.6-2.7,2.5-3.6l7.2-8.2
			l1.2,1.1L91,28.1z"/>
		<path id="XMLID_137_" style="fill:#3C67B0;" d="M94.8,31.9c-1.1,1-2,2.2-2.7,3.5L90.9,34c0.6-1.1,1.9-2.5,2.8-3.4l8-7.5l1.1,1.2
			L94.8,31.9z"/>
	</g>
	<g id="XMLID_97_">
		
			<circle id="Circle_2_" style="fill:#FFFFFF;stroke:#3C67B0;stroke-width:1.4175;stroke-miterlimit:10;" cx="53.2" cy="69.2" r="40.2"/>
		
			<circle id="Circle_1_" style="fill:none;stroke:#3C67B0;stroke-width:2.8351;stroke-miterlimit:10;" cx="53.2" cy="69.2" r="44.2"/>
	</g>
	<g id="XMLID_100_">
		<g id="XMLID_107_">
			<path id="XMLID_112_" style="display:none;fill:#3C67B0;" d="M69.6,67.6c-1.3-1.8-2.3-3.1-3.6-4.8c1.3-1.4,2.6-2.9,4.1-4.2
				c1.2-1.1,2.3-2.4,1.4-4c-0.6-1-1.8-2-2.9-2.4c-1.6-0.5-2.9,0.5-3.7,2c-0.8,1.5-1.5,3-2.3,4.5c-0.6,1.3-1.6,1.7-2.9,1.2
				c-1.5-0.5-2.3-1.5-1.9-3.1c0.1-0.7,0.4-1.3,0.6-1.9c0.6-1.7,0.2-3.2-1.3-4c-1-0.5-2.7-0.6-3.7-0.2c-1.4,0.6-2.2,2-1.8,3.8
				c0.3,1.3,0.5,2.7,0.3,4c-0.1,0.6-1.1,1.2-1.7,1.4c-0.4,0.1-1.2-0.6-1.4-1.1c-0.5-1.1-0.6-2.3-1.1-3.3c-1.1-2.1-2.9-2.6-4.7-1.5
				c-2.1,1.2-2.6,3.1-1.2,5.1c0.9,1.2,1.9,2.3,2.8,3.4c-2.6,3.3-2.6,3.3-5.6,0.9c-2.2-1.7-4.2-1.4-5.5,0.8c-1.2,2-0.6,3.5,1.9,4.9
				c1.1,0.6,2.4,1.1,3.7,1.7c-0.9,2.6-2.5,2.5-4.6,2.4c-1.2-0.1-2.9,1-3.6,2.1c-0.9,1.3-0.5,2.9,0.9,4.1c1.4,1.1,2.8,1.1,4.2,0.2
				c0.6-0.4,1.1-0.7,2.1-1.3c0.3,0.7,0.7,1.2,0.9,1.7c1.2,3.5,1.1,3.5-2.4,4.8c-2.2,0.8-3.2,2.3-2.7,4.2c0.5,1.6,1.6,2.7,3.4,2.5
				c0.9-0.1,2-0.6,2.6-1.2c1.6-1.7,3.1-2.4,5.3-1c0.6,0.4,2.2,0.4,2.7-0.1C55.1,82.1,62.3,74.9,69.6,67.6z"/>
			<path id="XMLID_111_" style="display:none;fill:#3C67B0;" d="M59.7,60.1c-1.5-0.5-2.3-1.5-1.9-3.1c0.1-0.7,0.4-1.3,0.6-1.9
				c0.6-1.7,0.2-3.2-1.3-4c-1-0.5-2.7-0.6-3.7-0.2c-1.4,0.6-2.2,2-1.8,3.8c0.3,1.3,0.5,2.7,0.3,4c-0.1,0.6-1.1,1.2-1.7,1.4
				c-0.4,0.1-1.2-0.6-1.4-1.1c-0.5-1.1-0.6-2.3-1.1-3.3c-1.1-2.1-2.9-2.6-4.7-1.5c-2.1,1.2-2.6,3.1-1.2,5.1c0.9,1.2,1.9,2.3,2.8,3.4
				c-2.6,3.3-2.6,3.3-5.6,0.9c-2.2-1.7-4.2-1.4-5.5,0.8c-1.2,2-0.6,3.5,1.9,4.9c1.1,0.6,2.4,1.1,3.7,1.7c-0.9,2.6-2.5,2.5-4.6,2.4
				c-1.2-0.1-2.9,1-3.6,2.1c-0.9,1.3-0.5,2.9,0.9,4.1c1.4,1.1,2.8,1.1,4.2,0.2c0.6-0.4,1.1-0.7,2.1-1.3c0.3,0.7,0.7,1.2,0.9,1.7"/>
			<path id="XMLID_110_" style="fill:#3C67B0;" d="M64.7,63.8c1.8,1.3,2.7,2.8,4.2,4c1.4-1.3,3.4-3.1,4.8-4.5c1.1-1.2,2.4-2.3,4-1.4
				c1,0.6,2,1.8,2.4,2.9c0.5,1.6-0.5,2.9-2,3.7c-1.5,0.8-3,1.5-4.5,2.3c-1.3,0.6-1.7,1.6-1.2,2.9c0.5,1.5,1.5,2.3,3.1,1.9
				c0.7-0.1,1.3-0.4,1.9-0.6c1.7-0.6,3.2-0.2,4,1.3c0.5,1,0.6,2.7,0.2,3.7c-0.6,1.4-2,2.2-3.8,1.8c-1.3-0.3-2.7-0.5-4-0.3
				c-0.6,0.1-1.2,1.1-1.4,1.7c-0.1,0.4,0.6,1.2,1.1,1.4c1.1,0.5,2.3,0.6,3.3,1.1c2.1,1.1,2.6,2.9,1.5,4.7c-1.2,2.1-3.1,2.6-5.1,1.2
				c-1.2-0.9-2.3-1.9-3.4-2.8c-3.3,2.6-3.3,2.6-0.9,5.6c1.7,2.2,1.4,4.2-0.8,5.5c-2,1.2-3.5,0.6-4.9-1.9c-0.6-1.1-1.1-2.4-1.7-3.7
				c-2.6,0.9-2.5,2.5-2.4,4.6c0.1,1.2-1,2.9-2.1,3.6c-1.3,0.9-2.9,0.5-4.1-0.9c-1.1-1.4-1.1-2.8-0.2-4.2c0.4-0.6,0.7-1.1,1.3-2.1
				c-0.7-0.3-1.2-0.7-1.7-0.9c-3.5-1.2-3.5-1.1-4.8,2.4c-0.8,2.2-2.3,3.2-4.2,2.7c-1.6-0.5-2.7-1.6-2.5-3.4c0.1-0.9,0.6-2,1.2-2.6
				c1.7-1.6,2.4-3.1,1-5.3c-0.4-0.6-0.4-2.2,0.1-2.7C50.3,78.2,57.4,71.1,64.7,63.8z"/>
			<path id="XMLID_109_" style="fill:#3C67B0;" d="M63.5,59.5c-1.3-1.8-2.3-3.1-3.6-4.8c1.3-1.4,2.6-2.9,4.1-4.2
				c1.2-1.1,2.3-2.4,1.4-4c-0.6-1-1.8-2-2.9-2.4c-1.6-0.5-2.9,0.5-3.7,2c-0.8,1.5-1.5,3-2.3,4.5c-0.6,1.3-1.6,1.7-2.9,1.2
				c-1.5-0.5-2.3-1.5-1.9-3.1c0.1-0.7,0.4-1.3,0.6-1.9c0.6-1.7,0.2-3.2-1.3-4c-1-0.5-2.7-0.6-3.7-0.2c-1.4,0.6-2.2,2-1.8,3.8
				c0.3,1.3,0.5,2.7,0.3,4c-0.1,0.6-1.1,1.2-1.7,1.4c-0.4,0.1-1.2-0.6-1.4-1.1c-0.5-1.1-0.6-2.3-1.1-3.3c-1.1-2.1-2.9-2.6-4.7-1.5
				c-2.1,1.2-2.6,3.1-1.2,5.1c0.9,1.2,1.9,2.3,2.8,3.4c-2.6,3.3-2.6,3.3-5.6,0.9c-2.2-1.7-4.2-1.4-5.5,0.8c-1.2,2-0.6,3.5,1.9,4.9
				c1.1,0.6,2.4,1.1,3.7,1.7c-0.9,2.6-2.5,2.5-4.6,2.4c-1.2-0.1-2.9,1-3.6,2.1c-0.9,1.3-0.5,2.9,0.9,4.1c1.4,1.1,2.8,1.1,4.2,0.2
				c0.6-0.4,1.1-0.7,2.1-1.3c0.3,0.7,0.7,1.2,0.9,1.7c1.2,3.5,1.1,3.5-2.4,4.8c-2.2,0.8-3.2,2.3-2.7,4.2c0.5,1.6,1.6,2.7,3.4,2.5
				c0.9-0.1,2-0.6,2.6-1.2c1.6-1.7,3.1-2.4,5.3-1c0.6,0.4,2.2,0.4,2.7-0.1C49,73.9,56.2,66.7,63.5,59.5z"/>
			<path id="XMLID_108_" style="fill:#3C67B0;" d="M38.9,80c1.2,3.5,1.1,3.5-2.4,4.8c-2.2,0.8-3.2,2.3-2.7,4.2
				c0.5,1.6,1.6,2.7,3.4,2.5c0.9-0.1,2-0.6,2.6-1.2c1.6-1.7,3.1-2.4,5.3-1c0.6,0.4,2.2,0.4,2.7-0.1c7.3-7.1,14.4-14.3,21.7-21.5
				c-1.3-1.8-2.3-3.1-3.6-4.8c1.3-1.4,2.6-2.9,4.1-4.2c1.2-1.1,2.3-2.4,1.4-4c-0.6-1-1.8-2-2.9-2.4c-1.6-0.5-2.9,0.5-3.7,2
				c-0.8,1.5-1.5,3-2.3,4.5c-0.6,1.3-1.6,1.7-2.9,1.2"/>
		</g>
		<g id="XMLID_101_">
			<defs>
				<circle id="XMLID_102_" cx="52.6" cy="69.3" r="40.3"/>
			</defs>
			<clipPath id="XMLID_171_">
				<use xlink:href="#XMLID_102_"  style="overflow:visible;"/>
			</clipPath>
			<g id="XMLID_103_" style="clip-path:url(#XMLID_171_);">
				
					<line id="XMLID_106_" style="display:none;fill:none;stroke:#3C67B0;stroke-width:7.7547;stroke-miterlimit:10;" x1="15.6" y1="111.8" x2="96.3" y2="31.1"/>
				
					<line id="XMLID_105_" style="fill:none;stroke:#FFFFFF;stroke-width:1.8344;stroke-miterlimit:10;" x1="12.6" y1="108.8" x2="93.3" y2="28.1"/>
				
					<line id="XMLID_104_" style="fill:none;stroke:#3C67B0;stroke-width:1.8344;stroke-miterlimit:10;" x1="13.6" y1="110.8" x2="94.3" y2="30.1"/>
			</g>
		</g>
	</g>
</g>
<g id="XMLID_92_">
</g>
<g id="XMLID_99_">
</g>
<g id="XMLID_140_">
</g>
<g id="XMLID_141_">
</g>
<g id="XMLID_142_">
</g>
<g id="XMLID_143_">
</g>
<g id="XMLID_144_">
</g>
<g id="XMLID_145_">
</g>
<g id="XMLID_146_">
</g>
<g id="XMLID_164_">
</g>
<g id="XMLID_165_">
</g>
<g id="XMLID_166_">
</g>
<g id="XMLID_167_">
</g>
<g id="XMLID_168_">
</g>
<g id="XMLID_169_">
</g>
</svg>
