<?xml version="1.0" encoding="utf-8"?>
<!-- Generator: Adobe Illustrator 19.0.0, SVG Export Plug-In . SVG Version: 6.00 Build 0)  -->
<svg version="1.1" id="Pinwheel_Logo" xmlns="http://www.w3.org/2000/svg" xmlns:xlink="http://www.w3.org/1999/xlink" x="0px"
	 y="0px" width="359.8px" height="65.8px" viewBox="0 0 359.8 65.8" style="enable-background:new 0 0 359.8 65.8;"
	 xml:space="preserve">
<style type="text/css">
	.st0{fill:#00ADEE;}
	.st1{fill:url(#XMLID_324_);}
</style>
<g id="XMLID_4779_">
	<g id="Yogi_Junior__x28_Outline_x29__2_">
		<path id="XMLID_4809_" class="st0" d="M94.7,29.5c1.5-4.3,2.9-9.8,4.2-16.5l8.6,1.4c-2.5,9.7-4.2,15.7-4.9,17.9
			c-2.2,6.7-4.5,11.6-6.9,14.6c-3.5,4.5-8.2,6.7-13.9,6.7c-0.9,0-1.9,0-2.8-0.1V43.3c1.3,0.5,2.6,0.7,3.7,0.7c2.7,0,4.9-1.4,6.6-4.1
			l-9-25.6l9.5-2.2L94.7,29.5z"/>
		<path id="XMLID_4806_" class="st0" d="M105.9,32.9c0.2-5.3,1.5-9.8,3.9-13.6c2.9-4.5,6.8-6.8,11.7-6.8c5.1,0,8.9,1.3,11.2,3.8
			c1.9,2.1,3.3,5.8,4.4,11.2c0.4,2.1,0.6,4.1,0.6,6c0,4-1,7.4-3,10c-2.9,3.9-7.3,5.8-13.3,5.6c-5.5-0.2-9.4-1.5-12-4.2
			C106.9,42.4,105.7,38.3,105.9,32.9z M126.2,24.6c-1.6-1.5-3.1-2.3-4.6-2.3c-1.8,0-3.4,1.2-4.8,3.5c-1.3,2.1-2,4.1-2,6
			c0,1.8,0.6,3.7,1.8,5.6c1.3,2.1,2.9,3.2,4.6,3.2c2,0,3.8-1.1,5.5-3.2c1.6-2,2.4-4,2.4-6.1C129.2,29.2,128.2,26.9,126.2,24.6z"/>
		<path id="XMLID_4802_" class="st0" d="M166.5,40.2c1.1,2.4,1.6,4.2,1.6,5.6c0,1.5-1,3.1-3,5c-2.9,2.7-7.8,3.9-14.7,3.7
			c-6.9-0.2-10.8-1.9-11.8-5.1c-0.3-1-0.5-1.9-0.5-2.7c0-1.9,0.8-3.5,2.4-4.8c-0.7-1.7-1.1-3.6-1.1-5.5c0-2,1.2-3.7,3.7-5.3
			c-3-2.3-4.5-5.1-4.5-8.2c0-0.9,0.1-1.9,0.4-2.9c1.2-4.4,4.1-7.2,8.9-8.5c2-0.5,3.8-0.8,5.5-0.8c2.5,0,4.7,0.5,6.6,1.6
			c0.8-1.6,1.9-2.9,3.4-3.8l6.4,5.6c-2.5,0.5-4,1.6-4.5,3.3c1.5,1.5,2.1,4,1.9,7.4c-0.2,3.4-1.7,6.1-4.4,7.8c-2,1.3-4.8,1.9-8.4,1.9
			c-1.4,0-2.9-0.1-4.6-0.3c-2.1,0.6-3.1,1.4-3.1,2.5c0,0.3,0.1,0.7,0.3,1.1c4.1-1,7.7-1.5,10.7-1.5
			C162.4,36.2,165.3,37.5,166.5,40.2z M160.7,44.4c-0.3-1.3-1.4-2-3-2c-0.8,0-2.3,0.2-4.5,0.5c-4.6,0.7-6.9,1.7-6.8,3
			c0,1.1,1.7,1.6,5,1.6c0.6,0,1.5,0,2.6-0.1c4.6-0.3,6.9-1.2,6.9-2.6C160.8,44.7,160.8,44.5,160.7,44.4z M158.8,22.5
			c-0.1-1.7-0.7-2.7-1.6-3.2c-0.6-0.3-2-0.5-4.2-0.6c-3.7-0.1-5.6,1-5.6,3.1c-0.1,2.2,1.9,3.4,5.8,3.8c0.5,0,1,0.1,1.4,0.1
			C157.6,25.7,159,24.6,158.8,22.5z"/>
		<path id="XMLID_4799_" class="st0" d="M175.9,8c0.5,0,1,0.1,1.4,0.2c1.9,0.6,3.2,1.8,3.8,3.6c0.2,0.5,0.3,1.1,0.3,1.6
			c0,1.2-0.5,2.3-1.4,3.5c-1.4,1.7-2.9,2.4-4.7,2.3c-1.8-0.2-3.2-1.1-4.3-2.9c-0.5-0.8-0.8-1.6-0.8-2.5c0-1.1,0.4-2.2,1.1-3.4
			C172.8,8.8,174.3,8,175.9,8z M181.1,22.8c-0.4,8.6-0.8,17.1-1.4,25.5l-8.9,0.8c0.3-3.6,0.5-7.3,0.5-11c0-4.6-0.3-9.3-0.8-14.1
			L181.1,22.8z"/>
		<path id="XMLID_4796_" class="st0" d="M213.1,17.7c-0.3,5.8-0.4,11.1-0.4,16c0,2.2,0,4.5,0.1,7.1c0.2,6.7-0.7,12.7-2.6,17.9
			c-1.4,3.8-5.1,5.8-11.2,5.8c-2.1,0-4.5-0.2-7.3-0.7l-0.8-9.6c1.7,0.5,3.2,0.7,4.5,0.7c3,0,4.9-1.3,5.6-3.9c1-3.6,1.7-7.7,2.2-12.3
			c0.2-1.5,0.2-3.2,0.2-5.1c0-3.9-0.3-8.7-0.9-14.5L213.1,17.7z M207.3,3.9c0.5,0,1,0.1,1.4,0.2c1.9,0.6,3.2,1.8,3.8,3.6
			c0.2,0.5,0.3,1.1,0.3,1.6c0,1.2-0.5,2.3-1.4,3.5c-1.4,1.7-2.9,2.4-4.7,2.3c-1.8-0.2-3.3-1.1-4.4-2.9c-0.5-0.8-0.7-1.6-0.7-2.5
			c0-1.1,0.4-2.2,1.1-3.4C204.2,4.7,205.8,3.9,207.3,3.9z"/>
		<path id="XMLID_4794_" class="st0" d="M233.2,47l-0.4-3.4c-3.8,2.5-6.9,3.8-9.3,3.8c-2.4,0-4.1-1.2-5.2-3.7
			c-2.1-5-3.1-16.3-2.9-33.9l8.3-0.3c-0.2,4.2-0.2,7.8-0.2,11c0,11.5,1.1,17.3,3.4,17.3c1.3,0,2.9-1.7,4.9-5V10.4h8l-1.1,36.2
			L233.2,47z"/>
		<path id="XMLID_4792_" class="st0" d="M250.8,11.7l0.6,3.9c4.5-3.2,8.2-4.7,11.1-4.7c2.7,0,4.7,1.4,6,4.1c2,4.1,2.9,10.9,2.9,20.3
			c0,3.4-0.1,7.1-0.4,11.2l-9.4,0.3c0.7-5,1.1-9.2,1.1-12.6c0-4.2-0.6-7.2-1.7-9.1c-0.7-1.2-1.5-1.8-2.5-1.8c-1.8,0-3.9,2.1-6.5,6.3
			v18.3l-8.5-0.2l-1.4-34.3L250.8,11.7z"/>
		<path id="XMLID_4789_" class="st0" d="M279,8c0.5,0,1,0.1,1.4,0.2c1.9,0.6,3.2,1.8,3.8,3.6c0.2,0.5,0.3,1.1,0.3,1.6
			c0,1.2-0.5,2.3-1.4,3.5c-1.4,1.7-2.9,2.4-4.7,2.3c-1.8-0.2-3.2-1.1-4.3-2.9c-0.5-0.8-0.8-1.6-0.8-2.5c0-1.1,0.4-2.2,1.1-3.4
			C275.9,8.8,277.5,8,279,8z M284.3,22.8c-0.4,8.6-0.8,17.1-1.4,25.5l-8.9,0.8c0.3-3.6,0.5-7.3,0.5-11c0-4.6-0.3-9.3-0.8-14.1
			L284.3,22.8z"/>
		<path id="XMLID_4786_" class="st0" d="M286,32.9c0.2-5.3,1.5-9.8,3.9-13.6c2.9-4.5,6.8-6.8,11.7-6.8c5.1,0,8.9,1.3,11.2,3.8
			c1.9,2.1,3.3,5.8,4.4,11.2c0.4,2.1,0.6,4.1,0.6,6c0,4-1,7.4-3,10c-2.9,3.9-7.3,5.8-13.3,5.6c-5.5-0.2-9.4-1.5-12-4.2
			C286.9,42.4,285.8,38.3,286,32.9z M306.3,24.6c-1.6-1.5-3.1-2.3-4.6-2.3c-1.8,0-3.4,1.2-4.8,3.5c-1.3,2.1-2,4.1-2,6
			c0,1.8,0.6,3.7,1.8,5.6c1.3,2.1,2.9,3.2,4.6,3.2c2,0,3.8-1.1,5.5-3.2c1.6-2,2.4-4,2.4-6.1C309.3,29.2,308.3,26.9,306.3,24.6z"/>
		<path id="XMLID_4784_" class="st0" d="M319.8,48.2c0.1-14-0.3-25.3-1.1-33.7l9.7-0.8l-0.3,3.2c4.8-3,9.6-4.4,14.5-4.2l0.9,8.4
			c-5.7,0-9.7,1.2-12,3.5c-1.6,1.6-2.4,5.8-2.4,12.5c0,3,0.2,6.6,0.5,10.8L319.8,48.2z"/>
	</g>
	<g id="TM__x28_Outline_x29__2_">
		<path id="XMLID_4782_" class="st0" d="M348.7,11.2l-0.1-1.4c2-0.2,3.8-0.3,5.5-0.5l0,1.4l-1.8,0.1l0.1,5l-1.4-0.2l-0.1-4.8
			L348.7,11.2z"/>
		<path id="XMLID_4780_" class="st0" d="M356.4,9.6l0.7,2.6l0.7-2.4l1.6,0c0.2,2,0.3,4,0.4,6l-1.5-0.1v-3.2l-0.5,1.9h-1.4l-0.4-2.1
			l-0.1,3.3l-1.4-0.1l0.3-5.6L356.4,9.6z"/>
	</g>
</g>
<g id="XMLID_4770_">
	
		<radialGradient id="XMLID_324_" cx="32.4881" cy="33.5519" r="32.8904" gradientTransform="matrix(0.9941 0 0 0.9941 0.2047 -0.4636)" gradientUnits="userSpaceOnUse">
		<stop  offset="9.347098e-02" style="stop-color:#FCCFB3"/>
		<stop  offset="0.7895" style="stop-color:#F05A28"/>
	</radialGradient>
	<path id="XMLID_4771_" class="st1" d="M30.4,0c5.4,10.1,6.2,22.6,1.9,33.1c-0.4-11.3-7-22.2-16-28.8C21,2.3,25.7,1.9,30.4,0L30.4,0
		z M0,27.6c10.9-2.3,23.4-1.6,32.3,5.4c-0.9-3.1-3.2-5.6-5.5-7.8c-2.4-2.3-4.9-4.4-7.8-6.1c-2.1-1.2-4.3-2.3-6.6-3.2
		c-0.6-0.2-6.9-2.4-7-2C3.9,18.7,1.6,23,0,27.6z M8.2,54.9c4.3-10.1,13.2-18.7,24.1-21.8C21,31.1,9.7,35,0.8,42
		C3.5,46.3,5.4,50.6,8.2,54.9L8.2,54.9z M34.3,65.8c-3.9-10.7-5.8-22.2-1.9-32.7c-8.6,7.4-12.9,19-12.5,30.4
		C19.9,63.4,33.8,64.8,34.3,65.8z M59.2,51.8c-11.3-1.9-20.6-9.3-26.9-18.7c0.4,5.1,1.9,10.1,4.3,14.8c1.4,2.8,3.3,5.3,5.3,7.7
		c1.9,2.3,4.1,4.5,6.8,6C52.9,55.9,58,53,59.2,51.8z M63.8,23.7c-8.6,7-20.2,10.9-31.5,9.3c9.7,6.2,21.8,8.6,32.7,5.1
		C64.2,33.5,64.6,28.4,63.8,23.7L63.8,23.7z M44.8,2.3c0.8,11.3-4.3,23-12.5,30.7c10.9-3.5,19.9-11.7,24.5-22.2
		C52.5,8.2,48.7,5.4,44.8,2.3L44.8,2.3z"/>
</g>
<g id="XMLID_308_">
</g>
<g id="XMLID_309_">
</g>
<g id="XMLID_310_">
</g>
<g id="XMLID_311_">
</g>
<g id="XMLID_312_">
</g>
<g id="XMLID_313_">
</g>
<g id="XMLID_314_">
</g>
<g id="XMLID_315_">
</g>
<g id="XMLID_316_">
</g>
<g id="XMLID_317_">
</g>
<g id="XMLID_318_">
</g>
<g id="XMLID_319_">
</g>
<g id="XMLID_320_">
</g>
<g id="XMLID_321_">
</g>
<g id="XMLID_322_">
</g>
</svg>
