<?xml version="1.0" encoding="utf-8"?>
<!-- Generator: Adobe Illustrator 19.0.0, SVG Export Plug-In . SVG Version: 6.00 Build 0)  -->
<svg version="1.1" id="Layer_1" xmlns="http://www.w3.org/2000/svg" xmlns:xlink="http://www.w3.org/1999/xlink" x="0px" y="0px"
	 viewBox="0 0 1019.5 151.5" style="enable-background:new 0 0 1019.5 151.5;" xml:space="preserve">
<style type="text/css">
	.st0{display:none;fill-rule:evenodd;clip-rule:evenodd;fill:#00ADEE;}
	.st1{display:none;clip-path:url(#Clipping_Mask_2_);fill-rule:evenodd;clip-rule:evenodd;fill:#00ADEE;}
	.st2{display:none;clip-path:url(#Clipping_Mask_2_);}
	.st3{display:inline;fill:#36CDDD;}
	.st4{display:inline;}
	.st5{fill:#36CDDD;}
	.st6{display:none;fill:#36CDDD;}
	.st7{display:none;opacity:0.27;fill:#36CDDD;}
	.st8{display:inline;fill:#03C3EF;}
	.st9{fill:#03C3EF;}
	.st10{display:none;fill:#03C3EF;}
	.st11{display:none;opacity:0.27;fill:#03C3EF;}
	.st12{opacity:0.25;clip-path:url(#Clipping_Mask_2_);}
	.st13{fill:#FFFFFF;}
	.st14{display:none;fill:#FFFFFF;}
	.st15{display:none;opacity:0.27;fill:#FFFFFF;}
	.st16{display:inline;fill:#45CBF4;}
	.st17{fill:#45CBF4;}
	.st18{display:none;fill:#45CBF4;}
	.st19{display:none;opacity:0.27;fill:#45CBF4;}
</style>
<rect id="Top_Border" x="-59.5" y="19.9" class="st0" width="1180" height="93"/>
<g id="XMLID_272_">
	<defs>
		<rect id="Clipping_Mask" x="-11.5" y="-15.1" width="1045" height="179"/>
	</defs>
	<clipPath id="Clipping_Mask_2_">
		<use xlink:href="#Clipping_Mask"  style="overflow:visible;"/>
	</clipPath>
	<rect id="Clipping_Mask_1_" x="-11.5" y="-15.1" class="st1" width="1045" height="179"/>
	<g id="Top_Left_Corner_-_Lighter" class="st2">
		<path id="XMLID_507_" class="st3" d="M1028.5,33.4l6,51.7l-22.4-45.8c-0.6-1.1,0-2.5,1.2-2.9l12.4-4.7
			C1027,31.2,1028.4,32,1028.5,33.4z M990.7,55.5l43.9,29.6l-34.3-39.4c-0.8-0.9-2.2-1-3.1-0.1l-6.7,6.5
			C989.4,53.1,989.6,54.7,990.7,55.5z M982.7,80.2l51.8,4.9l-47.9-20.7c-1.2-0.5-2.6,0.2-2.9,1.5l-2.8,11.8
			C980.5,78.9,981.4,80.1,982.7,80.2z M985.9,104.4l48.6-19.3l-52,6c-1.3,0.1-2.1,1.4-1.8,2.7l2.3,9.1
			C983.4,104.2,984.7,104.9,985.9,104.4z M1000.3,132.4l34.3-47.3l-42.6,31.7c-0.8,0.6-1.1,1.6-0.7,2.5l5.3,12.7
			C997.2,133.5,999.3,133.8,1000.3,132.4z M1026.9,136.9l7.6-51.8l-20.8,48c-0.5,1.2,0.1,2.6,1.4,2.9l9.1,2.6
			C1025.5,139,1026.7,138.1,1026.9,136.9z M1053.8,133.7l-19.3-48.6l6,52c0.1,1.3,1.4,2.1,2.7,1.8l9.1-2.3
			C1053.6,136.3,1054.3,134.9,1053.8,133.7z M1077.7,117.6l-43.2-32.5l31.4,47c0.8,1.2,2.6,1.3,3.5,0.1l8.7-11.7
			C1078.9,119.6,1078.7,118.3,1077.7,117.6z M1086.3,92.7l-51.8-7.6l47.6,22.8c1.2,0.6,2.6-0.1,3-1.4l3-11.1
			C1088.4,94.2,1087.6,92.9,1086.3,92.7z M1083.1,65.9l-48.5,19.2l51.6-4.2c1.3-0.1,2.2-1.3,1.9-2.5l-2.2-11
			C1085.7,66.1,1084.3,65.4,1083.1,65.9z M1070.3,47.3l-35.7,37.8l44.9-27.8c1.2-0.7,1.4-2.3,0.4-3.3l-6.5-6.7
			C1072.5,46.4,1071.1,46.4,1070.3,47.3z M1042.2,33.2l-7.6,51.9l26-47.5c0.7-1.3,0-2.8-1.4-3.1l-14.3-3
			C1043.5,31.1,1042.4,31.9,1042.2,33.2z"/>
		<path id="XMLID_499_" class="st3" d="M915.9,9.2L938.4,36l-31.9-14.4c-1-0.5-1.4-1.8-0.7-2.7l7.3-9.7
			C913.8,8.3,915.2,8.3,915.9,9.2z M907.2,51.9l31.2-16l-35,0.9c-1.1,0-1.9,1.1-1.7,2.2l3,11.8C904.9,51.9,906.2,52.4,907.2,51.9z
			 M931.4,70.3l7-34.3l-21.2,27.9c-0.7,0.9-0.4,2.2,0.7,2.7l11.1,5C930,72,931.2,71.4,931.4,70.3z M960.8,62.8L938.3,36l8.6,33.9
			c0.3,1.1,1.5,1.7,2.5,1.1l10.8-5.5C961.3,65,961.6,63.7,960.8,62.8z M973.4,35.1l-35,0.9l31.9,14.4c1,0.5,2.2-0.1,2.5-1.3
			l2.4-11.9C975.4,36.2,974.5,35.1,973.4,35.1z M959.5,8.1L938.4,36l31.2-16c1-0.5,1.3-1.8,0.5-2.7L962.3,8
			C961.6,7.2,960.2,7.2,959.5,8.1z M929.8,2.1l8.6,33.9l6.9-34.3c0.2-1.1-0.6-2.1-1.8-2.1l-12.1,0.3C930.3-0.1,929.5,1,929.8,2.1z"
			/>
		<g id="Logo_New_2_" class="st4">
			<path id="XMLID_490_" class="st5" d="M822.6,57c2.1-19.4-6.2-39.6-19.6-53.8c-1-1-0.4-2.7,1-3c7.1-1.4,13.9-1.4,21-2.9
				c1.5-0.3,3.1,0.6,3.6,2.1C834.8,19.2,832.8,40.2,822.6,57z M817,112.9c-3.6-19.2-3.7-39,5.6-55.9c-16.9,10.7-27.7,29.3-30.4,48.9
				c-0.2,1.5,0.8,3,2.3,3.3c4.8,1.2,14.9,3.8,20.1,5.6C815.9,115.4,817.2,114.3,817,112.9z M863.5,96.3c-18.4-7-32.4-22-40.9-39.3
				c-0.6,9.2,1,18.8,4.1,27.8c1.9,5.4,4.6,10.3,7.7,15.2c2.5,3.9,5.3,7.7,8.8,10.8c1.2,1,2.9,1,4.1-0.1c6.2-5.6,12.5-9,16.5-11.1
				C865.1,98.8,864.9,96.8,863.5,96.3z M822.6,57c20-3.4,37.9-15,49.3-31.6c0.9-1.3,0.7-3-0.5-4c-5.5-4.7-10.8-8.8-16.2-13.3
				c-1.1-0.9-2.8-0.3-3,1.1C848.8,28.8,838.6,46.1,822.6,57z M879.5,50c-17.7,8.6-37.8,11.4-57,7c6.9,6.3,15.5,11.1,24.6,14.4
				c5.5,2,11.1,2.9,16.9,3.6c4.7,0.6,9.4,0.8,14,0c1.4-0.2,2.5-1.5,2.5-2.9c0.2-8.7,0.6-13.4,1.6-20.2
				C882.4,50.5,880.9,49.4,879.5,50z M885.4,66.8 M822.6,57c-19.6,2.9-37,15.2-47.5,31.5c-0.8,1.2-2.6,1.1-3.2-0.2
				c-3.1-6.4-4.5-12.9-7.6-19.6c-0.6-1.4-0.1-3,1.2-3.8C783.1,54,803.5,51.6,822.6,57z M768,39.2c19.8-1.6,39.1,5.8,54.6,17.8
				c-3.6-8.6-9.3-16.5-16.1-23.4c-4.1-4.1-8.8-7.3-13.8-10.4c-4-2.5-8.2-4.7-12.8-5.9c-1.5-0.4-3,0.4-3.6,1.8
				c-3.1,7.8-7.3,13.6-9.9,17.2C765.4,37.6,766.4,39.3,768,39.2z"/>
			<path id="XMLID_489_" class="st6" d="M816.9,1.8c-2.3,1.8-5.7,1.5-7.5-0.7c-1.9-2.2-1.5-5.6,0.7-7.4s5.7-1.5,7.5,0.7
				C819.5-3.4,819.2-0.1,816.9,1.8z"/>
			<path id="XMLID_488_" class="st7" d="M816.9,1.8c-2.3,1.8-5.7,1.5-7.5-0.7c-1.9-2.2-1.5-5.6,0.7-7.4s5.7-1.5,7.5,0.7
				C819.5-3.4,819.2-0.1,816.9,1.8z"/>
		</g>
		<g id="Group_5_" class="st4">
			<path id="XMLID_475_" class="st5" d="M675.6-36.1c11.5,13.8,18.6,31.4,21.2,49.4c-5.7-12.5-17.1-27-35.6-38.4
				c-1.1-0.7-1.2-2.2-0.2-3c3.4-2.9,6.9-5.6,10.2-8.4C672.6-37.6,674.5-37.4,675.6-36.1z M696.8,13.3
				c-12.2-13.6-28.3-23.5-45.5-28.8c-1.3-0.4-2.8,0.2-3.5,1.3c-1.7,2.8-3.3,5.8-4.7,8.8c-0.5,1.2,0.3,2.6,1.7,2.6
				C663.3-2.8,682.9,3.3,696.8,13.3z M696.8,13.3c-16.7-7.3-35.9-9.4-53.7-6.1c-1.5,0.3-2.6,1.7-2.5,3.2c0.3,4,0.6,7.8,0.9,11.8
				c0.1,1.3,1.6,2.1,2.7,1.5C659.4,15.2,677.8,10.9,696.8,13.3z M696.8,13.3c-17.9,1.8-35.4,9.6-49.2,21.3c-1.1,1-1.4,2.6-0.7,3.9
				c1.5,2.7,3.1,5.3,4.8,8c0.7,1.1,2.3,1.1,3.1,0C664.6,31.6,680.2,19.5,696.8,13.3z M696.8,13.3c-16,10.3-25.9,26.6-32.7,43.8
				c-0.4,1.1-0.2,2.4,0.7,3.3c3.7,3.8,7.4,7.5,11.1,11.3c1.2,1.2,3.1,0.4,3.1-1.3C679.1,50.2,684,28.6,696.8,13.3z M695.5,29.7
				c-0.3-5.3-0.2-11.2,1.4-16.4c-8.2,16.3-9.7,35.3-6.4,53c0.3,1.5,1.7,2.6,3.2,2.5c3.1-0.2,6.1-0.2,9.2-0.4
				c1.3-0.1,2.1-1.5,1.5-2.6C699,54.8,696.2,41.4,695.5,29.7z M696.8,13.3c-0.2,12.1,5.6,24,10.8,34.5c2.9,5.3,6.3,10.4,10.3,14.7
				c1,1.1,2.7,1.2,4,0.4c2.6-1.8,5.4-3.3,8.1-5.1c1.1-0.7,1.1-2.3,0-3C714.9,45,702.5,29.4,696.8,13.3z M750.3,34.6
				c0.4-1.1-0.4-2.3-1.6-2.4c-4.2-0.2-12.3-2.1-13.7-2.3c-10.2-1.9-20.2-5.2-29.2-10.5c-1.6-0.9-3.2-1.9-4.7-3
				c-1.2-0.8-3.5-1.9-4.3-3.2c10.7,16.9,27.2,28.6,45.4,35.6c1.6,0.6,3.5-0.2,4-1.9C747.6,42.9,749,38.8,750.3,34.6z M716.7,14
				c-6.6,0.4-13.6-0.3-19.8-0.7c16.3,8.2,35,10.6,53.1,7.8c1.5-0.2,2.6-1.5,2.6-3c0-3.8-0.1-7.5-0.2-11.2c0-1.3-1.3-2.2-2.5-1.7
				C739.3,9.4,728.1,13.3,716.7,14z M724.7-4.4c-1.6,1.5-3.3,2.9-4.9,4.3c-6.6,5.8-14.6,9.9-22.9,13.4c17.6-2.4,35-8.8,49.3-19.3
				c1.2-0.9,1.6-2.5,0.9-3.8c-1.7-3.3-3.6-6.5-5.3-9.8c-0.6-1.2-2.3-1.3-3.1-0.3C734.5-14.4,729.9-9.2,724.7-4.4z M696.8,13.3
				c8.1-5.7,16-12,22.4-19.9c1-1.2,3-3.5,4.4-5.6c3.6-5.4,6.2-10.4,8.5-15.7c0.6-1.5,0.1-3.2-1.3-3.9c-2.6-1.4-5.2-2.7-7.8-4.1
				c-1.1-0.6-2.5,0.1-2.7,1.4C717.9-16.7,707.8,0.7,696.8,13.3z M696.8,13.3c7.9-16.9,12.8-35.9,10.7-54.7c-0.2-1.7-1.7-2.9-3.4-2.7
				c-4.6,0.5-9.1,1.2-13.7,1.6c-1.3,0.1-2,1.4-1.5,2.6C696.8-23.1,698.9-4.1,696.8,13.3z"/>
		</g>
		<path id="XMLID_467_" class="st3" d="M568.2,86.4l39.1,46.6l-55.4-25c-1.8-0.8-2.4-3.1-1.2-4.6l12.7-16.8
			C564.6,84.9,566.9,84.9,568.2,86.4z M553,160.6l54.1-27.7l-60.8,1.5c-2,0-3.4,1.9-2.9,3.8l5.2,20.4
			C549.2,160.5,551.3,161.5,553,160.6z M595.1,192.4l12.1-59.6l-36.7,48.4c-1.2,1.6-0.6,3.8,1.2,4.6l19.2,8.7
			C592.6,195.4,594.7,194.4,595.1,192.4z M646.2,179.5l-39.1-46.6l15,58.9c0.5,1.9,2.6,2.9,4.4,2l18.8-9.6
			C647,183.2,647.5,181,646.2,179.5z M668,131.5l-60.8,1.5l55.4,25c1.8,0.8,3.9-0.3,4.3-2.2l4.2-20.7
			C671.4,133.2,669.9,131.4,668,131.5z M643.9,84.5l-36.7,48.4l54.1-27.7c1.7-0.9,2.2-3.2,1-4.7l-13.5-16.2
			C647.5,82.9,645.1,82.9,643.9,84.5z M592.2,74l15,58.9l12.1-59.6c0.4-1.9-1.1-3.7-3.1-3.7l-21.1,0.5
			C593.2,70.3,591.8,72.1,592.2,74z"/>
		<path id="XMLID_459_" class="st3" d="M446.3,35.1l26.5,31.6l-37.6-17c-1.2-0.5-1.6-2.1-0.8-3.2l8.7-11.4
			C443.9,34.1,445.4,34.1,446.3,35.1z M436,85.5l36.8-18.8l-41.3,1c-1.3,0-2.3,1.3-2,2.6l3.5,13.9C433.4,85.5,434.8,86.1,436,85.5z
			 M464.6,107.2l8.2-40.5l-24.9,32.9c-0.8,1.1-0.4,2.6,0.8,3.2l13.1,5.9C462.9,109.2,464.3,108.5,464.6,107.2z M499.3,98.4
			l-26.5-31.6l10.2,40c0.3,1.3,1.8,1.9,3,1.3l12.7-6.5C499.9,100.9,500.2,99.4,499.3,98.4z M514.1,65.8l-41.3,1l37.6,17
			c1.2,0.5,2.6-0.2,2.9-1.5l2.8-14C516.5,66.9,515.5,65.7,514.1,65.8z M497.8,33.9l-24.9,32.9l36.8-18.8c1.2-0.6,1.5-2.2,0.6-3.2
			l-9.2-11C500.2,32.8,498.6,32.8,497.8,33.9z M462.7,26.7l10.2,40l8.2-40.5c0.3-1.3-0.8-2.5-2.1-2.5l-14.3,0.4
			C463.3,24.2,462.3,25.4,462.7,26.7z"/>
		<path id="XMLID_450_" class="st3" d="M352.6,46.8c13.6-7.2,23.3-21.5,26.8-36.4c0.3-1.1,1.6-1.5,2.4-0.7c4,3.9,7,8.4,11,12.3
			c0.9,0.9,1,2.2,0.2,3.2C382.7,38,368,46,352.6,46.8z M313.5,67.8c11-10.8,24-19.5,39.1-21c-14.3-6.2-31.2-5-45.3,2
			c-1.1,0.5-1.6,1.8-1.2,3c1.3,3.6,4,11.3,5,15.4C311.4,68.2,312.7,68.6,313.5,67.8z M344.5,90.4c-3.4-15,0.4-30.6,8.1-43.7
			c-6.3,3.7-11.9,8.9-16.5,14.9c-2.8,3.6-4.8,7.5-6.6,11.7c-1.5,3.3-2.8,6.8-3.3,10.4c-0.2,1.2,0.6,2.3,1.8,2.6
			c6.4,1.5,11.3,4.1,14.5,5.7C343.5,92.6,344.8,91.6,344.5,90.4z M352.6,46.8c10.9,11.4,26.2,17.8,42.1,17.9c1.2,0,2.2-0.9,2.4-2.1
			c0.7-5.6,1.1-10.8,1.7-16.3c0.1-1.1-1-1.9-2-1.5C382.4,51.3,366.7,52.3,352.6,46.8z M381.8,80.4c-13.3-7.6-23.8-19.4-29.2-33.7
			c-1.1,7.2-0.6,14.8,1.2,22.2c1.1,4.4,2.9,8.4,4.9,12.5c1.7,3.3,3.6,6.4,6,9.1c0.8,0.8,2,1,3,0.3c5.8-3.7,9.1-5.5,14-7.9
			C382.7,82.4,382.8,81,381.8,80.4z M373.3,91.6 M352.6,46.8c-10.4-11.4-26-17.1-41.2-16.7c-1.1,0-1.8-1.2-1.3-2.1
			c2.9-4.8,6.5-8.6,9.6-13.6c0.6-1,1.9-1.4,3-0.9C337.5,20,347.9,32.1,352.6,46.8z M340.6,3.8c9.6,12.1,13.1,27.8,12,43
			c4.1-6.1,6.8-13.3,8.3-20.7c0.9-4.5,1-8.9,0.8-13.4c-0.1-3.7-0.5-7.4-1.7-10.9c-0.4-1.1-1.6-1.8-2.8-1.5
			c-6.4,1.4-12.1,1.3-15.6,1.2C340.5,1.4,339.8,2.8,340.6,3.8z"/>
		<path id="XMLID_437_" class="st3" d="M211.5,43.7l30.3,31.8l-38.4-19.4c-0.9-0.5-1.3-1.7-0.7-2.6l5.9-9.5
			C209.3,43,210.7,42.9,211.5,43.7z M197.2,77.8l44.6-2.3l-43.1-9.1c-1-0.2-2,0.5-2.2,1.5l-1.2,7.8
			C195.2,76.9,196.1,77.9,197.2,77.8z M204.5,98.6l37.4-23.1L199,85.9c-1.1,0.3-1.7,1.4-1.2,2.5l4.1,9.4
			C202.3,98.8,203.5,99.1,204.5,98.6z M218.9,113.2l23-37.7L209.9,106c-0.8,0.8-0.7,2,0.1,2.7l6.2,5
			C217.1,114.4,218.3,114.1,218.9,113.2z M242.8,124.8l-1-49.3l-12.6,43c-0.2,0.8,0.1,1.7,0.8,2.1l10,5.8
			C241.3,127.1,242.9,126.2,242.8,124.8z M263.1,114.2l-21.2-38.8l10.4,42.9c0.3,1.1,1.4,1.7,2.4,1.3l7.4-2.9
			C263.1,116.4,263.6,115.2,263.1,114.2z M279.6,98.4l-37.7-23l30.5,31.9c0.8,0.8,2,0.7,2.7-0.1l5-6.2
			C280.7,100.3,280.5,99,279.6,98.4z M287.5,75.4l-45.6,0.1l45.1,15.7c1.2,0.4,2.4-0.5,2.4-1.7l0-12.3
			C289.3,76.2,288.5,75.4,287.5,75.4z M280.6,54.3l-38.8,21.2l43.6-8.8c1.1-0.2,1.7-1.4,1.3-2.4l-3.6-9
			C282.8,54.2,281.6,53.8,280.6,54.3z M264.8,37.8l-22.9,37.6l32.7-29.1c0.8-0.7,0.8-2,0-2.7l-7-6.3
			C266.7,36.7,265.4,36.9,264.8,37.8z M246.7,31.8l-4.8,43.6L258,33.9c0.4-1.1-0.3-2.3-1.4-2.4l-7.8-1.2
			C247.7,30.1,246.8,30.8,246.7,31.8z M220.6,36.6l21.3,38.9l-6.7-45.2c-0.2-1.2-1.5-1.9-2.6-1.4l-11.2,5.2
			C220.5,34.5,220.1,35.7,220.6,36.6z"/>
		<path id="XMLID_412_" class="st3" d="M107.7,2.8L131.3,31L97.8,15.9c-1.1-0.5-1.4-1.9-0.7-2.8l7.7-10.2
			C105.5,2,106.9,1.9,107.7,2.8z M98.5,47.7L131.3,31l-36.8,0.9c-1.2,0-2,1.2-1.7,2.3l3.1,12.4C96.2,47.7,97.5,48.3,98.5,47.7z
			 M124,67l7.3-36l-22.2,29.3c-0.7,0.9-0.4,2.3,0.7,2.8l11.6,5.2C122.5,68.8,123.7,68.2,124,67z M154.9,59.2L131.3,31l9.1,35.6
			c0.3,1.2,1.6,1.7,2.6,1.2l11.3-5.8C155.4,61.5,155.7,60.1,154.9,59.2z M168.1,30.1L131.3,31l33.5,15.1c1.1,0.5,2.3-0.2,2.6-1.3
			l2.5-12.5C170.2,31.2,169.3,30.1,168.1,30.1z M153.5,1.7L131.3,31L164,14.3c1.1-0.5,1.3-1.9,0.6-2.8l-8.2-9.8
			C155.7,0.7,154.2,0.8,153.5,1.7z M122.2-4.6l9.1,35.6l7.3-36c0.2-1.2-0.7-2.2-1.9-2.2L124-6.9C122.8-6.9,122-5.8,122.2-4.6z"/>
		<g id="Group_3_" class="st4">
			<path id="XMLID_396_" class="st5" d="M27.3,59.4c10.3,12.4,16.7,28.1,19,44.3C41.2,92.5,31,79.5,14.4,69.3c-1-0.6-1-1.9-0.2-2.7
				c3.1-2.6,6.2-5,9.2-7.6C24.6,58.1,26.3,58.2,27.3,59.4z M46.3,103.7c-10.9-12.2-25.4-21-40.8-25.9C4.3,77.5,3,78,2.4,79.1
				c-1.6,2.5-3,5.2-4.2,7.9c-0.5,1.1,0.3,2.3,1.5,2.3C16.2,89.3,33.8,94.8,46.3,103.7z M46.3,103.7c-14.9-6.5-32.2-8.5-48.2-5.5
				c-1.4,0.3-2.4,1.5-2.3,2.9c0.3,3.5,0.6,7,0.8,10.6c0.1,1.2,1.4,1.9,2.4,1.3C12.7,105.4,29.3,101.5,46.3,103.7z M46.3,103.7
				c-16.1,1.6-31.7,8.6-44.2,19.1c-1,0.9-1.3,2.3-0.6,3.5c1.4,2.4,2.8,4.8,4.3,7.2c0.6,1,2.1,1,2.8,0
				C17.4,120.1,31.4,109.3,46.3,103.7z M46.3,103.7C32,113,23.1,127.6,17,143c-0.4,1-0.2,2.2,0.6,2.9c3.3,3.4,6.6,6.7,10,10.1
				c1,1.1,2.8,0.3,2.8-1.2C30.4,136.8,34.8,117.4,46.3,103.7z M45.1,118.4c-0.3-4.7-0.2-10,1.2-14.7c-7.3,14.6-8.7,31.6-5.7,47.6
				c0.3,1.4,1.5,2.3,2.9,2.2c2.8-0.2,5.5-0.2,8.3-0.4c1.2-0.1,1.9-1.3,1.4-2.4C48.3,140.9,45.7,128.9,45.1,118.4z M46.3,103.7
				c-0.2,10.8,5,21.5,9.7,31c2.6,4.8,5.6,9.3,9.3,13.2c0.9,1,2.4,1.1,3.6,0.3c2.4-1.6,4.9-2.9,7.2-4.5c1-0.7,0.9-2.1,0-2.7
				C62.5,132.2,51.4,118.2,46.3,103.7z M94.2,122.9c0.3-1-0.4-2.1-1.5-2.1c-3.8-0.2-11-1.8-12.3-2.1c-9.2-1.7-18.1-4.7-26.2-9.4
				c-1.4-0.8-2.8-1.7-4.2-2.7c-1.1-0.7-3.2-1.7-3.9-2.8c9.6,15.1,24.4,25.6,40.7,31.9c1.5,0.6,3.1-0.2,3.6-1.7
				C91.9,130.2,93.1,126.5,94.2,122.9z M64.1,104.4c-5.9,0.4-12.2-0.2-17.8-0.6c14.7,7.3,31.4,9.5,47.6,7c1.3-0.2,2.4-1.3,2.4-2.7
				c0-3.4-0.1-6.7-0.1-10c0-1.2-1.2-1.9-2.3-1.5C84.4,100.3,74.3,103.7,64.1,104.4z M71.3,87.9c-1.4,1.3-3,2.6-4.4,3.9
				c-5.9,5.2-13.1,8.9-20.6,12c15.8-2.2,31.4-7.9,44.2-17.3c1.1-0.8,1.4-2.3,0.8-3.4c-1.5-3-3.2-5.9-4.7-8.8c-0.6-1.1-2-1.2-2.8-0.2
				C80.1,78.9,76,83.5,71.3,87.9z M46.3,103.7c7.3-5.1,14.3-10.7,20.1-17.9c0.9-1.1,2.7-3.2,3.9-5c3.2-4.8,5.6-9.3,7.6-14.1
				c0.6-1.3,0-2.8-1.2-3.5c-2.4-1.3-4.6-2.4-7-3.7c-1-0.5-2.2,0.1-2.4,1.2C65.2,76.9,56.1,92.4,46.3,103.7z M46.3,103.7
				c7.1-15.1,11.5-32.2,9.6-49c-0.2-1.5-1.5-2.6-3-2.4c-4.1,0.4-8.2,1.1-12.3,1.5c-1.1,0.1-1.8,1.3-1.4,2.3
				C46.3,71,48.1,88.1,46.3,103.7z"/>
		</g>
	</g>
	<g id="Top_Left_Corner_-_Light" class="st2">
		<path id="XMLID_382_" class="st8" d="M1028.5,33.4l6,51.7l-22.4-45.8c-0.6-1.1,0-2.5,1.2-2.9l12.4-4.7
			C1027,31.2,1028.4,32,1028.5,33.4z M990.7,55.5l43.9,29.6l-34.3-39.4c-0.8-0.9-2.2-1-3.1-0.1l-6.7,6.5
			C989.4,53.1,989.6,54.7,990.7,55.5z M982.7,80.2l51.8,4.9l-47.9-20.7c-1.2-0.5-2.6,0.2-2.9,1.5l-2.8,11.8
			C980.5,78.9,981.4,80.1,982.7,80.2z M985.9,104.4l48.6-19.3l-52,6c-1.3,0.1-2.1,1.4-1.8,2.7l2.3,9.1
			C983.4,104.2,984.7,104.9,985.9,104.4z M1000.3,132.4l34.3-47.3l-42.6,31.7c-0.8,0.6-1.1,1.6-0.7,2.5l5.3,12.7
			C997.2,133.5,999.3,133.8,1000.3,132.4z M1026.9,136.9l7.6-51.8l-20.8,48c-0.5,1.2,0.1,2.6,1.4,2.9l9.1,2.6
			C1025.5,139,1026.7,138.1,1026.9,136.9z M1053.8,133.7l-19.3-48.6l6,52c0.1,1.3,1.4,2.1,2.7,1.8l9.1-2.3
			C1053.6,136.3,1054.3,134.9,1053.8,133.7z M1077.7,117.6l-43.2-32.5l31.4,47c0.8,1.2,2.6,1.3,3.5,0.1l8.7-11.7
			C1078.9,119.6,1078.7,118.3,1077.7,117.6z M1086.3,92.7l-51.8-7.6l47.6,22.8c1.2,0.6,2.6-0.1,3-1.4l3-11.1
			C1088.4,94.2,1087.6,92.9,1086.3,92.7z M1083.1,65.9l-48.5,19.2l51.6-4.2c1.3-0.1,2.2-1.3,1.9-2.5l-2.2-11
			C1085.7,66.1,1084.3,65.4,1083.1,65.9z M1070.3,47.3l-35.7,37.8l44.9-27.8c1.2-0.7,1.4-2.3,0.4-3.3l-6.5-6.7
			C1072.5,46.4,1071.1,46.4,1070.3,47.3z M1042.2,33.2l-7.6,51.9l26-47.5c0.7-1.3,0-2.8-1.4-3.1l-14.3-3
			C1043.5,31.1,1042.4,31.9,1042.2,33.2z"/>
		<path id="XMLID_374_" class="st8" d="M915.9,9.2L938.4,36l-31.9-14.4c-1-0.5-1.4-1.8-0.7-2.7l7.3-9.7
			C913.8,8.3,915.2,8.3,915.9,9.2z M907.2,51.9l31.2-16l-35,0.9c-1.1,0-1.9,1.1-1.7,2.2l3,11.8C904.9,51.9,906.2,52.4,907.2,51.9z
			 M931.4,70.3l7-34.3l-21.2,27.9c-0.7,0.9-0.4,2.2,0.7,2.7l11.1,5C930,72,931.2,71.4,931.4,70.3z M960.8,62.8L938.3,36l8.6,33.9
			c0.3,1.1,1.5,1.7,2.5,1.1l10.8-5.5C961.3,65,961.6,63.7,960.8,62.8z M973.4,35.1l-35,0.9l31.9,14.4c1,0.5,2.2-0.1,2.5-1.3
			l2.4-11.9C975.4,36.2,974.5,35.1,973.4,35.1z M959.5,8.1L938.4,36l31.2-16c1-0.5,1.3-1.8,0.5-2.7L962.3,8
			C961.6,7.2,960.2,7.2,959.5,8.1z M929.8,2.1l8.6,33.9l6.9-34.3c0.2-1.1-0.6-2.1-1.8-2.1l-12.1,0.3C930.3-0.1,929.5,1,929.8,2.1z"
			/>
		<g id="Logo_New_1_" class="st4">
			<path id="XMLID_365_" class="st9" d="M822.6,57c2.1-19.4-6.2-39.6-19.6-53.8c-1-1-0.4-2.7,1-3c7.1-1.4,13.9-1.4,21-2.9
				c1.5-0.3,3.1,0.6,3.6,2.1C834.8,19.2,832.8,40.2,822.6,57z M817,112.9c-3.6-19.2-3.7-39,5.6-55.9c-16.9,10.7-27.7,29.3-30.4,48.9
				c-0.2,1.5,0.8,3,2.3,3.3c4.8,1.2,14.9,3.8,20.1,5.6C815.9,115.4,817.2,114.3,817,112.9z M863.5,96.3c-18.4-7-32.4-22-40.9-39.3
				c-0.6,9.2,1,18.8,4.1,27.8c1.9,5.4,4.6,10.3,7.7,15.2c2.5,3.9,5.3,7.7,8.8,10.8c1.2,1,2.9,1,4.1-0.1c6.2-5.6,12.5-9,16.5-11.1
				C865.1,98.8,864.9,96.8,863.5,96.3z M822.6,57c20-3.4,37.9-15,49.3-31.6c0.9-1.3,0.7-3-0.5-4c-5.5-4.7-10.8-8.8-16.2-13.3
				c-1.1-0.9-2.8-0.3-3,1.1C848.8,28.8,838.6,46.1,822.6,57z M879.5,50c-17.7,8.6-37.8,11.4-57,7c6.9,6.3,15.5,11.1,24.6,14.4
				c5.5,2,11.1,2.9,16.9,3.6c4.7,0.6,9.4,0.8,14,0c1.4-0.2,2.5-1.5,2.5-2.9c0.2-8.7,0.6-13.4,1.6-20.2
				C882.4,50.5,880.9,49.4,879.5,50z M885.4,66.8 M822.6,57c-19.6,2.9-37,15.2-47.5,31.5c-0.8,1.2-2.6,1.1-3.2-0.2
				c-3.1-6.4-4.5-12.9-7.6-19.6c-0.6-1.4-0.1-3,1.2-3.8C783.1,54,803.5,51.6,822.6,57z M768,39.2c19.8-1.6,39.1,5.8,54.6,17.8
				c-3.6-8.6-9.3-16.5-16.1-23.4c-4.1-4.1-8.8-7.3-13.8-10.4c-4-2.5-8.2-4.7-12.8-5.9c-1.5-0.4-3,0.4-3.6,1.8
				c-3.1,7.8-7.3,13.6-9.9,17.2C765.4,37.6,766.4,39.3,768,39.2z"/>
			<path id="XMLID_364_" class="st10" d="M816.9,1.8c-2.3,1.8-5.7,1.5-7.5-0.7c-1.9-2.2-1.5-5.6,0.7-7.4s5.7-1.5,7.5,0.7
				C819.5-3.4,819.2-0.1,816.9,1.8z"/>
			<path id="XMLID_363_" class="st11" d="M816.9,1.8c-2.3,1.8-5.7,1.5-7.5-0.7c-1.9-2.2-1.5-5.6,0.7-7.4s5.7-1.5,7.5,0.7
				C819.5-3.4,819.2-0.1,816.9,1.8z"/>
		</g>
		<g id="Group_2_" class="st4">
			<path id="XMLID_350_" class="st9" d="M675.6-36.1c11.5,13.8,18.6,31.4,21.2,49.4c-5.7-12.5-17.1-27-35.6-38.4
				c-1.1-0.7-1.2-2.2-0.2-3c3.4-2.9,6.9-5.6,10.2-8.4C672.6-37.6,674.5-37.4,675.6-36.1z M696.8,13.3
				c-12.2-13.6-28.3-23.5-45.5-28.8c-1.3-0.4-2.8,0.2-3.5,1.3c-1.7,2.8-3.3,5.8-4.7,8.8c-0.5,1.2,0.3,2.6,1.7,2.6
				C663.3-2.8,682.9,3.3,696.8,13.3z M696.8,13.3c-16.7-7.3-35.9-9.4-53.7-6.1c-1.5,0.3-2.6,1.7-2.5,3.2c0.3,4,0.6,7.8,0.9,11.8
				c0.1,1.3,1.6,2.1,2.7,1.5C659.4,15.2,677.8,10.9,696.8,13.3z M696.8,13.3c-17.9,1.8-35.4,9.6-49.2,21.3c-1.1,1-1.4,2.6-0.7,3.9
				c1.5,2.7,3.1,5.3,4.8,8c0.7,1.1,2.3,1.1,3.1,0C664.6,31.6,680.2,19.5,696.8,13.3z M696.8,13.3c-16,10.3-25.9,26.6-32.7,43.8
				c-0.4,1.1-0.2,2.4,0.7,3.3c3.7,3.8,7.4,7.5,11.1,11.3c1.2,1.2,3.1,0.4,3.1-1.3C679.1,50.2,684,28.6,696.8,13.3z M695.5,29.7
				c-0.3-5.3-0.2-11.2,1.4-16.4c-8.2,16.3-9.7,35.3-6.4,53c0.3,1.5,1.7,2.6,3.2,2.5c3.1-0.2,6.1-0.2,9.2-0.4
				c1.3-0.1,2.1-1.5,1.5-2.6C699,54.8,696.2,41.4,695.5,29.7z M696.8,13.3c-0.2,12.1,5.6,24,10.8,34.5c2.9,5.3,6.3,10.4,10.3,14.7
				c1,1.1,2.7,1.2,4,0.4c2.6-1.8,5.4-3.3,8.1-5.1c1.1-0.7,1.1-2.3,0-3C714.9,45,702.5,29.4,696.8,13.3z M750.3,34.6
				c0.4-1.1-0.4-2.3-1.6-2.4c-4.2-0.2-12.3-2.1-13.7-2.3c-10.2-1.9-20.2-5.2-29.2-10.5c-1.6-0.9-3.2-1.9-4.7-3
				c-1.2-0.8-3.5-1.9-4.3-3.2c10.7,16.9,27.2,28.6,45.4,35.6c1.6,0.6,3.5-0.2,4-1.9C747.6,42.9,749,38.8,750.3,34.6z M716.7,14
				c-6.6,0.4-13.6-0.3-19.8-0.7c16.3,8.2,35,10.6,53.1,7.8c1.5-0.2,2.6-1.5,2.6-3c0-3.8-0.1-7.5-0.2-11.2c0-1.3-1.3-2.2-2.5-1.7
				C739.3,9.4,728.1,13.3,716.7,14z M724.7-4.4c-1.6,1.5-3.3,2.9-4.9,4.3c-6.6,5.8-14.6,9.9-22.9,13.4c17.6-2.4,35-8.8,49.3-19.3
				c1.2-0.9,1.6-2.5,0.9-3.8c-1.7-3.3-3.6-6.5-5.3-9.8c-0.6-1.2-2.3-1.3-3.1-0.3C734.5-14.4,729.9-9.2,724.7-4.4z M696.8,13.3
				c8.1-5.7,16-12,22.4-19.9c1-1.2,3-3.5,4.4-5.6c3.6-5.4,6.2-10.4,8.5-15.7c0.6-1.5,0.1-3.2-1.3-3.9c-2.6-1.4-5.2-2.7-7.8-4.1
				c-1.1-0.6-2.5,0.1-2.7,1.4C717.9-16.7,707.8,0.7,696.8,13.3z M696.8,13.3c7.9-16.9,12.8-35.9,10.7-54.7c-0.2-1.7-1.7-2.9-3.4-2.7
				c-4.6,0.5-9.1,1.2-13.7,1.6c-1.3,0.1-2,1.4-1.5,2.6C696.8-23.1,698.9-4.1,696.8,13.3z"/>
		</g>
		<path id="XMLID_342_" class="st8" d="M568.2,86.4l39.1,46.6l-55.4-25c-1.8-0.8-2.4-3.1-1.2-4.6l12.7-16.8
			C564.6,84.9,566.9,84.9,568.2,86.4z M553,160.6l54.1-27.7l-60.8,1.5c-2,0-3.4,1.9-2.9,3.8l5.2,20.4
			C549.2,160.5,551.3,161.5,553,160.6z M595.1,192.4l12.1-59.6l-36.7,48.4c-1.2,1.6-0.6,3.8,1.2,4.6l19.2,8.7
			C592.6,195.4,594.7,194.4,595.1,192.4z M646.2,179.5l-39.1-46.6l15,58.9c0.5,1.9,2.6,2.9,4.4,2l18.8-9.6
			C647,183.2,647.5,181,646.2,179.5z M668,131.5l-60.8,1.5l55.4,25c1.8,0.8,3.9-0.3,4.3-2.2l4.2-20.7
			C671.4,133.2,669.9,131.4,668,131.5z M643.9,84.5l-36.7,48.4l54.1-27.7c1.7-0.9,2.2-3.2,1-4.7l-13.5-16.2
			C647.5,82.9,645.1,82.9,643.9,84.5z M592.2,74l15,58.9l12.1-59.6c0.4-1.9-1.1-3.7-3.1-3.7l-21.1,0.5
			C593.2,70.3,591.8,72.1,592.2,74z"/>
		<path id="XMLID_334_" class="st8" d="M446.3,35.1l26.5,31.6l-37.6-17c-1.2-0.5-1.6-2.1-0.8-3.2l8.7-11.4
			C443.9,34.1,445.4,34.1,446.3,35.1z M436,85.5l36.8-18.8l-41.3,1c-1.3,0-2.3,1.3-2,2.6l3.5,13.9C433.4,85.5,434.8,86.1,436,85.5z
			 M464.6,107.2l8.2-40.5l-24.9,32.9c-0.8,1.1-0.4,2.6,0.8,3.2l13.1,5.9C462.9,109.2,464.3,108.5,464.6,107.2z M499.3,98.4
			l-26.5-31.6l10.2,40c0.3,1.3,1.8,1.9,3,1.3l12.7-6.5C499.9,100.9,500.2,99.4,499.3,98.4z M514.1,65.8l-41.3,1l37.6,17
			c1.2,0.5,2.6-0.2,2.9-1.5l2.8-14C516.5,66.9,515.5,65.7,514.1,65.8z M497.8,33.9l-24.9,32.9l36.8-18.8c1.2-0.6,1.5-2.2,0.6-3.2
			l-9.2-11C500.2,32.8,498.6,32.8,497.8,33.9z M462.7,26.7l10.2,40l8.2-40.5c0.3-1.3-0.8-2.5-2.1-2.5l-14.3,0.4
			C463.3,24.2,462.3,25.4,462.7,26.7z"/>
		<path id="XMLID_325_" class="st8" d="M352.6,46.8c13.6-7.2,23.3-21.5,26.8-36.4c0.3-1.1,1.6-1.5,2.4-0.7c4,3.9,7,8.4,11,12.3
			c0.9,0.9,1,2.2,0.2,3.2C382.7,38,368,46,352.6,46.8z M313.5,67.8c11-10.8,24-19.5,39.1-21c-14.3-6.2-31.2-5-45.3,2
			c-1.1,0.5-1.6,1.8-1.2,3c1.3,3.6,4,11.3,5,15.4C311.4,68.2,312.7,68.6,313.5,67.8z M344.5,90.4c-3.4-15,0.4-30.6,8.1-43.7
			c-6.3,3.7-11.9,8.9-16.5,14.9c-2.8,3.6-4.8,7.5-6.6,11.7c-1.5,3.3-2.8,6.8-3.3,10.4c-0.2,1.2,0.6,2.3,1.8,2.6
			c6.4,1.5,11.3,4.1,14.5,5.7C343.5,92.6,344.8,91.6,344.5,90.4z M352.6,46.8c10.9,11.4,26.2,17.8,42.1,17.9c1.2,0,2.2-0.9,2.4-2.1
			c0.7-5.6,1.1-10.8,1.7-16.3c0.1-1.1-1-1.9-2-1.5C382.4,51.3,366.7,52.3,352.6,46.8z M381.8,80.4c-13.3-7.6-23.8-19.4-29.2-33.7
			c-1.1,7.2-0.6,14.8,1.2,22.2c1.1,4.4,2.9,8.4,4.9,12.5c1.7,3.3,3.6,6.4,6,9.1c0.8,0.8,2,1,3,0.3c5.8-3.7,9.1-5.5,14-7.9
			C382.7,82.4,382.8,81,381.8,80.4z M373.3,91.6 M352.6,46.8c-10.4-11.4-26-17.1-41.2-16.7c-1.1,0-1.8-1.2-1.3-2.1
			c2.9-4.8,6.5-8.6,9.6-13.6c0.6-1,1.9-1.4,3-0.9C337.5,20,347.9,32.1,352.6,46.8z M340.6,3.8c9.6,12.1,13.1,27.8,12,43
			c4.1-6.1,6.8-13.3,8.3-20.7c0.9-4.5,1-8.9,0.8-13.4c-0.1-3.7-0.5-7.4-1.7-10.9c-0.4-1.1-1.6-1.8-2.8-1.5
			c-6.4,1.4-12.1,1.3-15.6,1.2C340.5,1.4,339.8,2.8,340.6,3.8z"/>
		<path id="XMLID_304_" class="st8" d="M211.5,43.7l30.3,31.8l-38.4-19.4c-0.9-0.5-1.3-1.7-0.7-2.6l5.9-9.5
			C209.3,43,210.7,42.9,211.5,43.7z M197.2,77.8l44.6-2.3l-43.1-9.1c-1-0.2-2,0.5-2.2,1.5l-1.2,7.8
			C195.2,76.9,196.1,77.9,197.2,77.8z M204.5,98.6l37.4-23.1L199,85.9c-1.1,0.3-1.7,1.4-1.2,2.5l4.1,9.4
			C202.3,98.8,203.5,99.1,204.5,98.6z M218.9,113.2l23-37.7L209.9,106c-0.8,0.8-0.7,2,0.1,2.7l6.2,5
			C217.1,114.4,218.3,114.1,218.9,113.2z M242.8,124.8l-1-49.3l-12.6,43c-0.2,0.8,0.1,1.7,0.8,2.1l10,5.8
			C241.3,127.1,242.9,126.2,242.8,124.8z M263.1,114.2l-21.2-38.8l10.4,42.9c0.3,1.1,1.4,1.7,2.4,1.3l7.4-2.9
			C263.1,116.4,263.6,115.2,263.1,114.2z M279.6,98.4l-37.7-23l30.5,31.9c0.8,0.8,2,0.7,2.7-0.1l5-6.2
			C280.7,100.3,280.5,99,279.6,98.4z M287.5,75.4l-45.6,0.1l45.1,15.7c1.2,0.4,2.4-0.5,2.4-1.7l0-12.3
			C289.3,76.2,288.5,75.4,287.5,75.4z M280.6,54.3l-38.8,21.2l43.6-8.8c1.1-0.2,1.7-1.4,1.3-2.4l-3.6-9
			C282.8,54.2,281.6,53.8,280.6,54.3z M264.8,37.8l-22.9,37.6l32.7-29.1c0.8-0.7,0.8-2,0-2.7l-7-6.3
			C266.7,36.7,265.4,36.9,264.8,37.8z M246.7,31.8l-4.8,43.6L258,33.9c0.4-1.1-0.3-2.3-1.4-2.4l-7.8-1.2
			C247.7,30.1,246.8,30.8,246.7,31.8z M220.6,36.6l21.3,38.9l-6.7-45.2c-0.2-1.2-1.5-1.9-2.6-1.4l-11.2,5.2
			C220.5,34.5,220.1,35.7,220.6,36.6z"/>
		<path id="XMLID_290_" class="st8" d="M107.7,2.8L131.3,31L97.8,15.9c-1.1-0.5-1.4-1.9-0.7-2.8l7.7-10.2
			C105.5,2,106.9,1.9,107.7,2.8z M98.5,47.7L131.3,31l-36.8,0.9c-1.2,0-2,1.2-1.7,2.3l3.1,12.4C96.2,47.7,97.5,48.3,98.5,47.7z
			 M124,67l7.3-36l-22.2,29.3c-0.7,0.9-0.4,2.3,0.7,2.8l11.6,5.2C122.5,68.8,123.7,68.2,124,67z M154.9,59.2L131.3,31l9.1,35.6
			c0.3,1.2,1.6,1.7,2.6,1.2l11.3-5.8C155.4,61.5,155.7,60.1,154.9,59.2z M168.1,30.1L131.3,31l33.5,15.1c1.1,0.5,2.3-0.2,2.6-1.3
			l2.5-12.5C170.2,31.2,169.3,30.1,168.1,30.1z M153.5,1.7L131.3,31L164,14.3c1.1-0.5,1.3-1.9,0.6-2.8l-8.2-9.8
			C155.7,0.7,154.2,0.8,153.5,1.7z M122.2-4.6l9.1,35.6l7.3-36c0.2-1.2-0.7-2.2-1.9-2.2L124-6.9C122.8-6.9,122-5.8,122.2-4.6z"/>
		<g id="Group_1_" class="st4">
			<path id="XMLID_275_" class="st9" d="M27.3,59.4c10.3,12.4,16.7,28.1,19,44.3C41.2,92.5,31,79.5,14.4,69.3c-1-0.6-1-1.9-0.2-2.7
				c3.1-2.6,6.2-5,9.2-7.6C24.6,58.1,26.3,58.2,27.3,59.4z M46.3,103.7c-10.9-12.2-25.4-21-40.8-25.9C4.3,77.5,3,78,2.4,79.1
				c-1.6,2.5-3,5.2-4.2,7.9c-0.5,1.1,0.3,2.3,1.5,2.3C16.2,89.3,33.8,94.8,46.3,103.7z M46.3,103.7c-14.9-6.5-32.2-8.5-48.2-5.5
				c-1.4,0.3-2.4,1.5-2.3,2.9c0.3,3.5,0.6,7,0.8,10.6c0.1,1.2,1.4,1.9,2.4,1.3C12.7,105.4,29.3,101.5,46.3,103.7z M46.3,103.7
				c-16.1,1.6-31.7,8.6-44.2,19.1c-1,0.9-1.3,2.3-0.6,3.5c1.4,2.4,2.8,4.8,4.3,7.2c0.6,1,2.1,1,2.8,0
				C17.4,120.1,31.4,109.3,46.3,103.7z M46.3,103.7C32,113,23.1,127.6,17,143c-0.4,1-0.2,2.2,0.6,2.9c3.3,3.4,6.6,6.7,10,10.1
				c1,1.1,2.8,0.3,2.8-1.2C30.4,136.8,34.8,117.4,46.3,103.7z M45.1,118.4c-0.3-4.7-0.2-10,1.2-14.7c-7.3,14.6-8.7,31.6-5.7,47.6
				c0.3,1.4,1.5,2.3,2.9,2.2c2.8-0.2,5.5-0.2,8.3-0.4c1.2-0.1,1.9-1.3,1.4-2.4C48.3,140.9,45.7,128.9,45.1,118.4z M46.3,103.7
				c-0.2,10.8,5,21.5,9.7,31c2.6,4.8,5.6,9.3,9.3,13.2c0.9,1,2.4,1.1,3.6,0.3c2.4-1.6,4.9-2.9,7.2-4.5c1-0.7,0.9-2.1,0-2.7
				C62.5,132.2,51.4,118.2,46.3,103.7z M94.2,122.9c0.3-1-0.4-2.1-1.5-2.1c-3.8-0.2-11-1.8-12.3-2.1c-9.2-1.7-18.1-4.7-26.2-9.4
				c-1.4-0.8-2.8-1.7-4.2-2.7c-1.1-0.7-3.2-1.7-3.9-2.8c9.6,15.1,24.4,25.6,40.7,31.9c1.5,0.6,3.1-0.2,3.6-1.7
				C91.9,130.2,93.1,126.5,94.2,122.9z M64.1,104.4c-5.9,0.4-12.2-0.2-17.8-0.6c14.7,7.3,31.4,9.5,47.6,7c1.3-0.2,2.4-1.3,2.4-2.7
				c0-3.4-0.1-6.7-0.1-10c0-1.2-1.2-1.9-2.3-1.5C84.4,100.3,74.3,103.7,64.1,104.4z M71.3,87.9c-1.4,1.3-3,2.6-4.4,3.9
				c-5.9,5.2-13.1,8.9-20.6,12c15.8-2.2,31.4-7.9,44.2-17.3c1.1-0.8,1.4-2.3,0.8-3.4c-1.5-3-3.2-5.9-4.7-8.8c-0.6-1.1-2-1.2-2.8-0.2
				C80.1,78.9,76,83.5,71.3,87.9z M46.3,103.7c7.3-5.1,14.3-10.7,20.1-17.9c0.9-1.1,2.7-3.2,3.9-5c3.2-4.8,5.6-9.3,7.6-14.1
				c0.6-1.3,0-2.8-1.2-3.5c-2.4-1.3-4.6-2.4-7-3.7c-1-0.5-2.2,0.1-2.4,1.2C65.2,76.9,56.1,92.4,46.3,103.7z M46.3,103.7
				c7.1-15.1,11.5-32.2,9.6-49c-0.2-1.5-1.5-2.6-3-2.4c-4.1,0.4-8.2,1.1-12.3,1.5c-1.1,0.1-1.8,1.3-1.4,2.3
				C46.3,71,48.1,88.1,46.3,103.7z"/>
		</g>
	</g>
	<g id="Top_Left_Corner_2" class="st12">
		<path id="XMLID_611_" class="st13" d="M1028.5,33.4l6,51.7l-22.4-45.8c-0.6-1.1,0-2.5,1.2-2.9l12.4-4.7
			C1027,31.2,1028.4,32,1028.5,33.4z M990.7,55.5l43.9,29.6l-34.3-39.4c-0.8-0.9-2.2-1-3.1-0.1l-6.7,6.5
			C989.4,53.1,989.6,54.7,990.7,55.5z M982.7,80.2l51.8,4.9l-47.9-20.7c-1.2-0.5-2.6,0.2-2.9,1.5l-2.8,11.8
			C980.5,78.9,981.4,80.1,982.7,80.2z M985.9,104.4l48.6-19.3l-52,6c-1.3,0.1-2.1,1.4-1.8,2.7l2.3,9.1
			C983.4,104.2,984.7,104.9,985.9,104.4z M1000.3,132.4l34.3-47.3l-42.6,31.7c-0.8,0.6-1.1,1.6-0.7,2.5l5.3,12.7
			C997.2,133.5,999.3,133.8,1000.3,132.4z M1026.9,136.9l7.6-51.8l-20.8,48c-0.5,1.2,0.1,2.6,1.4,2.9l9.1,2.6
			C1025.5,139,1026.7,138.1,1026.9,136.9z M1053.8,133.7l-19.3-48.6l6,52c0.1,1.3,1.4,2.1,2.7,1.8l9.1-2.3
			C1053.6,136.3,1054.3,134.9,1053.8,133.7z M1077.7,117.6l-43.2-32.5l31.4,47c0.8,1.2,2.6,1.3,3.5,0.1l8.7-11.7
			C1078.9,119.6,1078.7,118.3,1077.7,117.6z M1086.3,92.7l-51.8-7.6l47.6,22.8c1.2,0.6,2.6-0.1,3-1.4l3-11.1
			C1088.4,94.2,1087.6,92.9,1086.3,92.7z M1083.1,65.9l-48.5,19.2l51.6-4.2c1.3-0.1,2.2-1.3,1.9-2.5l-2.2-11
			C1085.7,66.1,1084.3,65.4,1083.1,65.9z M1070.3,47.3l-35.7,37.8l44.9-27.8c1.2-0.7,1.4-2.3,0.4-3.3l-6.5-6.7
			C1072.5,46.4,1071.1,46.4,1070.3,47.3z M1042.2,33.2l-7.6,51.9l26-47.5c0.7-1.3,0-2.8-1.4-3.1l-14.3-3
			C1043.5,31.1,1042.4,31.9,1042.2,33.2z"/>
		<path id="XMLID_603_" class="st13" d="M915.9,9.2L938.4,36l-31.9-14.4c-1-0.5-1.4-1.8-0.7-2.7l7.3-9.7
			C913.8,8.3,915.2,8.3,915.9,9.2z M907.2,51.9l31.2-16l-35,0.9c-1.1,0-1.9,1.1-1.7,2.2l3,11.8C904.9,51.9,906.2,52.4,907.2,51.9z
			 M931.4,70.3l7-34.3l-21.2,27.9c-0.7,0.9-0.4,2.2,0.7,2.7l11.1,5C930,72,931.2,71.4,931.4,70.3z M960.8,62.8L938.3,36l8.6,33.9
			c0.3,1.1,1.5,1.7,2.5,1.1l10.8-5.5C961.3,65,961.6,63.7,960.8,62.8z M973.4,35.1l-35,0.9l31.9,14.4c1,0.5,2.2-0.1,2.5-1.3
			l2.4-11.9C975.4,36.2,974.5,35.1,973.4,35.1z M959.5,8.1L938.4,36l31.2-16c1-0.5,1.3-1.8,0.5-2.7L962.3,8
			C961.6,7.2,960.2,7.2,959.5,8.1z M929.8,2.1l8.6,33.9l6.9-34.3c0.2-1.1-0.6-2.1-1.8-2.1l-12.1,0.3C930.3-0.1,929.5,1,929.8,2.1z"
			/>
		<g id="Logo_New_3_">
			<path id="XMLID_594_" class="st13" d="M822.6,57c2.1-19.4-6.2-39.6-19.6-53.8c-1-1-0.4-2.7,1-3c7.1-1.4,13.9-1.4,21-2.9
				c1.5-0.3,3.1,0.6,3.6,2.1C834.8,19.2,832.8,40.2,822.6,57z M817,112.9c-3.6-19.2-3.7-39,5.6-55.9c-16.9,10.7-27.7,29.3-30.4,48.9
				c-0.2,1.5,0.8,3,2.3,3.3c4.8,1.2,14.9,3.8,20.1,5.6C815.9,115.4,817.2,114.3,817,112.9z M863.5,96.3c-18.4-7-32.4-22-40.9-39.3
				c-0.6,9.2,1,18.8,4.1,27.8c1.9,5.4,4.6,10.3,7.7,15.2c2.5,3.9,5.3,7.7,8.8,10.8c1.2,1,2.9,1,4.1-0.1c6.2-5.6,12.5-9,16.5-11.1
				C865.1,98.8,864.9,96.8,863.5,96.3z M822.6,57c20-3.4,37.9-15,49.3-31.6c0.9-1.3,0.7-3-0.5-4c-5.5-4.7-10.8-8.8-16.2-13.3
				c-1.1-0.9-2.8-0.3-3,1.1C848.8,28.8,838.6,46.1,822.6,57z M879.5,50c-17.7,8.6-37.8,11.4-57,7c6.9,6.3,15.5,11.1,24.6,14.4
				c5.5,2,11.1,2.9,16.9,3.6c4.7,0.6,9.4,0.8,14,0c1.4-0.2,2.5-1.5,2.5-2.9c0.2-8.7,0.6-13.4,1.6-20.2
				C882.4,50.5,880.9,49.4,879.5,50z M885.4,66.8 M822.6,57c-19.6,2.9-37,15.2-47.5,31.5c-0.8,1.2-2.6,1.1-3.2-0.2
				c-3.1-6.4-4.5-12.9-7.6-19.6c-0.6-1.4-0.1-3,1.2-3.8C783.1,54,803.5,51.6,822.6,57z M768,39.2c19.8-1.6,39.1,5.8,54.6,17.8
				c-3.6-8.6-9.3-16.5-16.1-23.4c-4.1-4.1-8.8-7.3-13.8-10.4c-4-2.5-8.2-4.7-12.8-5.9c-1.5-0.4-3,0.4-3.6,1.8
				c-3.1,7.8-7.3,13.6-9.9,17.2C765.4,37.6,766.4,39.3,768,39.2z"/>
			<path id="XMLID_593_" class="st14" d="M816.9,1.8c-2.3,1.8-5.7,1.5-7.5-0.7c-1.9-2.2-1.5-5.6,0.7-7.4s5.7-1.5,7.5,0.7
				C819.5-3.4,819.2-0.1,816.9,1.8z"/>
			<path id="XMLID_592_" class="st15" d="M816.9,1.8c-2.3,1.8-5.7,1.5-7.5-0.7c-1.9-2.2-1.5-5.6,0.7-7.4s5.7-1.5,7.5,0.7
				C819.5-3.4,819.2-0.1,816.9,1.8z"/>
		</g>
		<g id="Group_7_">
			<path id="XMLID_579_" class="st13" d="M675.6-36.1c11.5,13.8,18.6,31.4,21.2,49.4c-5.7-12.5-17.1-27-35.6-38.4
				c-1.1-0.7-1.2-2.2-0.2-3c3.4-2.9,6.9-5.6,10.2-8.4C672.6-37.6,674.5-37.4,675.6-36.1z M696.8,13.3
				c-12.2-13.6-28.3-23.5-45.5-28.8c-1.3-0.4-2.8,0.2-3.5,1.3c-1.7,2.8-3.3,5.8-4.7,8.8c-0.5,1.2,0.3,2.6,1.7,2.6
				C663.3-2.8,682.9,3.3,696.8,13.3z M696.8,13.3c-16.7-7.3-35.9-9.4-53.7-6.1c-1.5,0.3-2.6,1.7-2.5,3.2c0.3,4,0.6,7.8,0.9,11.8
				c0.1,1.3,1.6,2.1,2.7,1.5C659.4,15.2,677.8,10.9,696.8,13.3z M696.8,13.3c-17.9,1.8-35.4,9.6-49.2,21.3c-1.1,1-1.4,2.6-0.7,3.9
				c1.5,2.7,3.1,5.3,4.8,8c0.7,1.1,2.3,1.1,3.1,0C664.6,31.6,680.2,19.5,696.8,13.3z M696.8,13.3c-16,10.3-25.9,26.6-32.7,43.8
				c-0.4,1.1-0.2,2.4,0.7,3.3c3.7,3.8,7.4,7.5,11.1,11.3c1.2,1.2,3.1,0.4,3.1-1.3C679.1,50.2,684,28.6,696.8,13.3z M695.5,29.7
				c-0.3-5.3-0.2-11.2,1.4-16.4c-8.2,16.3-9.7,35.3-6.4,53c0.3,1.5,1.7,2.6,3.2,2.5c3.1-0.2,6.1-0.2,9.2-0.4
				c1.3-0.1,2.1-1.5,1.5-2.6C699,54.8,696.2,41.4,695.5,29.7z M696.8,13.3c-0.2,12.1,5.6,24,10.8,34.5c2.9,5.3,6.3,10.4,10.3,14.7
				c1,1.1,2.7,1.2,4,0.4c2.6-1.8,5.4-3.3,8.1-5.1c1.1-0.7,1.1-2.3,0-3C714.9,45,702.5,29.4,696.8,13.3z M750.3,34.6
				c0.4-1.1-0.4-2.3-1.6-2.4c-4.2-0.2-12.3-2.1-13.7-2.3c-10.2-1.9-20.2-5.2-29.2-10.5c-1.6-0.9-3.2-1.9-4.7-3
				c-1.2-0.8-3.5-1.9-4.3-3.2c10.7,16.9,27.2,28.6,45.4,35.6c1.6,0.6,3.5-0.2,4-1.9C747.6,42.9,749,38.8,750.3,34.6z M716.7,14
				c-6.6,0.4-13.6-0.3-19.8-0.7c16.3,8.2,35,10.6,53.1,7.8c1.5-0.2,2.6-1.5,2.6-3c0-3.8-0.1-7.5-0.2-11.2c0-1.3-1.3-2.2-2.5-1.7
				C739.3,9.4,728.1,13.3,716.7,14z M724.7-4.4c-1.6,1.5-3.3,2.9-4.9,4.3c-6.6,5.8-14.6,9.9-22.9,13.4c17.6-2.4,35-8.8,49.3-19.3
				c1.2-0.9,1.6-2.5,0.9-3.8c-1.7-3.3-3.6-6.5-5.3-9.8c-0.6-1.2-2.3-1.3-3.1-0.3C734.5-14.4,729.9-9.2,724.7-4.4z M696.8,13.3
				c8.1-5.7,16-12,22.4-19.9c1-1.2,3-3.5,4.4-5.6c3.6-5.4,6.2-10.4,8.5-15.7c0.6-1.5,0.1-3.2-1.3-3.9c-2.6-1.4-5.2-2.7-7.8-4.1
				c-1.1-0.6-2.5,0.1-2.7,1.4C717.9-16.7,707.8,0.7,696.8,13.3z M696.8,13.3c7.9-16.9,12.8-35.9,10.7-54.7c-0.2-1.7-1.7-2.9-3.4-2.7
				c-4.6,0.5-9.1,1.2-13.7,1.6c-1.3,0.1-2,1.4-1.5,2.6C696.8-23.1,698.9-4.1,696.8,13.3z"/>
		</g>
		<path id="XMLID_571_" class="st13" d="M568.2,86.4l39.1,46.6l-55.4-25c-1.8-0.8-2.4-3.1-1.2-4.6l12.7-16.8
			C564.6,84.9,566.9,84.9,568.2,86.4z M553,160.6l54.1-27.7l-60.8,1.5c-2,0-3.4,1.9-2.9,3.8l5.2,20.4
			C549.2,160.5,551.3,161.5,553,160.6z M595.1,192.4l12.1-59.6l-36.7,48.4c-1.2,1.6-0.6,3.8,1.2,4.6l19.2,8.7
			C592.6,195.4,594.7,194.4,595.1,192.4z M646.2,179.5l-39.1-46.6l15,58.9c0.5,1.9,2.6,2.9,4.4,2l18.8-9.6
			C647,183.2,647.5,181,646.2,179.5z M668,131.5l-60.8,1.5l55.4,25c1.8,0.8,3.9-0.3,4.3-2.2l4.2-20.7
			C671.4,133.2,669.9,131.4,668,131.5z M643.9,84.5l-36.7,48.4l54.1-27.7c1.7-0.9,2.2-3.2,1-4.7l-13.5-16.2
			C647.5,82.9,645.1,82.9,643.9,84.5z M592.2,74l15,58.9l12.1-59.6c0.4-1.9-1.1-3.7-3.1-3.7l-21.1,0.5
			C593.2,70.3,591.8,72.1,592.2,74z"/>
		<path id="XMLID_563_" class="st13" d="M446.3,35.1l26.5,31.6l-37.6-17c-1.2-0.5-1.6-2.1-0.8-3.2l8.7-11.4
			C443.9,34.1,445.4,34.1,446.3,35.1z M436,85.5l36.8-18.8l-41.3,1c-1.3,0-2.3,1.3-2,2.6l3.5,13.9C433.4,85.5,434.8,86.1,436,85.5z
			 M464.6,107.2l8.2-40.5l-24.9,32.9c-0.8,1.1-0.4,2.6,0.8,3.2l13.1,5.9C462.9,109.2,464.3,108.5,464.6,107.2z M499.3,98.4
			l-26.5-31.6l10.2,40c0.3,1.3,1.8,1.9,3,1.3l12.7-6.5C499.9,100.9,500.2,99.4,499.3,98.4z M514.1,65.8l-41.3,1l37.6,17
			c1.2,0.5,2.6-0.2,2.9-1.5l2.8-14C516.5,66.9,515.5,65.7,514.1,65.8z M497.8,33.9l-24.9,32.9l36.8-18.8c1.2-0.6,1.5-2.2,0.6-3.2
			l-9.2-11C500.2,32.8,498.6,32.8,497.8,33.9z M462.7,26.7l10.2,40l8.2-40.5c0.3-1.3-0.8-2.5-2.1-2.5l-14.3,0.4
			C463.3,24.2,462.3,25.4,462.7,26.7z"/>
		<path id="XMLID_554_" class="st13" d="M352.6,46.8c13.6-7.2,23.3-21.5,26.8-36.4c0.3-1.1,1.6-1.5,2.4-0.7c4,3.9,7,8.4,11,12.3
			c0.9,0.9,1,2.2,0.2,3.2C382.7,38,368,46,352.6,46.8z M313.5,67.8c11-10.8,24-19.5,39.1-21c-14.3-6.2-31.2-5-45.3,2
			c-1.1,0.5-1.6,1.8-1.2,3c1.3,3.6,4,11.3,5,15.4C311.4,68.2,312.7,68.6,313.5,67.8z M344.5,90.4c-3.4-15,0.4-30.6,8.1-43.7
			c-6.3,3.7-11.9,8.9-16.5,14.9c-2.8,3.6-4.8,7.5-6.6,11.7c-1.5,3.3-2.8,6.8-3.3,10.4c-0.2,1.2,0.6,2.3,1.8,2.6
			c6.4,1.5,11.3,4.1,14.5,5.7C343.5,92.6,344.8,91.6,344.5,90.4z M352.6,46.8c10.9,11.4,26.2,17.8,42.1,17.9c1.2,0,2.2-0.9,2.4-2.1
			c0.7-5.6,1.1-10.8,1.7-16.3c0.1-1.1-1-1.9-2-1.5C382.4,51.3,366.7,52.3,352.6,46.8z M381.8,80.4c-13.3-7.6-23.8-19.4-29.2-33.7
			c-1.1,7.2-0.6,14.8,1.2,22.2c1.1,4.4,2.9,8.4,4.9,12.5c1.7,3.3,3.6,6.4,6,9.1c0.8,0.8,2,1,3,0.3c5.8-3.7,9.1-5.5,14-7.9
			C382.7,82.4,382.8,81,381.8,80.4z M373.3,91.6 M352.6,46.8c-10.4-11.4-26-17.1-41.2-16.7c-1.1,0-1.8-1.2-1.3-2.1
			c2.9-4.8,6.5-8.6,9.6-13.6c0.6-1,1.9-1.4,3-0.9C337.5,20,347.9,32.1,352.6,46.8z M340.6,3.8c9.6,12.1,13.1,27.8,12,43
			c4.1-6.1,6.8-13.3,8.3-20.7c0.9-4.5,1-8.9,0.8-13.4c-0.1-3.7-0.5-7.4-1.7-10.9c-0.4-1.1-1.6-1.8-2.8-1.5
			c-6.4,1.4-12.1,1.3-15.6,1.2C340.5,1.4,339.8,2.8,340.6,3.8z"/>
		<path id="XMLID_541_" class="st13" d="M211.5,43.7l30.3,31.8l-38.4-19.4c-0.9-0.5-1.3-1.7-0.7-2.6l5.9-9.5
			C209.3,43,210.7,42.9,211.5,43.7z M197.2,77.8l44.6-2.3l-43.1-9.1c-1-0.2-2,0.5-2.2,1.5l-1.2,7.8
			C195.2,76.9,196.1,77.9,197.2,77.8z M204.5,98.6l37.4-23.1L199,85.9c-1.1,0.3-1.7,1.4-1.2,2.5l4.1,9.4
			C202.3,98.8,203.5,99.1,204.5,98.6z M218.9,113.2l23-37.7L209.9,106c-0.8,0.8-0.7,2,0.1,2.7l6.2,5
			C217.1,114.4,218.3,114.1,218.9,113.2z M242.8,124.8l-1-49.3l-12.6,43c-0.2,0.8,0.1,1.7,0.8,2.1l10,5.8
			C241.3,127.1,242.9,126.2,242.8,124.8z M263.1,114.2l-21.2-38.8l10.4,42.9c0.3,1.1,1.4,1.7,2.4,1.3l7.4-2.9
			C263.1,116.4,263.6,115.2,263.1,114.2z M279.6,98.4l-37.7-23l30.5,31.9c0.8,0.8,2,0.7,2.7-0.1l5-6.2
			C280.7,100.3,280.5,99,279.6,98.4z M287.5,75.4l-45.6,0.1l45.1,15.7c1.2,0.4,2.4-0.5,2.4-1.7l0-12.3
			C289.3,76.2,288.5,75.4,287.5,75.4z M280.6,54.3l-38.8,21.2l43.6-8.8c1.1-0.2,1.7-1.4,1.3-2.4l-3.6-9
			C282.8,54.2,281.6,53.8,280.6,54.3z M264.8,37.8l-22.9,37.6l32.7-29.1c0.8-0.7,0.8-2,0-2.7l-7-6.3
			C266.7,36.7,265.4,36.9,264.8,37.8z M246.7,31.8l-4.8,43.6L258,33.9c0.4-1.1-0.3-2.3-1.4-2.4l-7.8-1.2
			C247.7,30.1,246.8,30.8,246.7,31.8z M220.6,36.6l21.3,38.9l-6.7-45.2c-0.2-1.2-1.5-1.9-2.6-1.4l-11.2,5.2
			C220.5,34.5,220.1,35.7,220.6,36.6z"/>
		<path id="XMLID_533_" class="st13" d="M107.7,2.8L131.3,31L97.8,15.9c-1.1-0.5-1.4-1.9-0.7-2.8l7.7-10.2
			C105.5,2,106.9,1.9,107.7,2.8z M98.5,47.7L131.3,31l-36.8,0.9c-1.2,0-2,1.2-1.7,2.3l3.1,12.4C96.2,47.7,97.5,48.3,98.5,47.7z
			 M124,67l7.3-36l-22.2,29.3c-0.7,0.9-0.4,2.3,0.7,2.8l11.6,5.2C122.5,68.8,123.7,68.2,124,67z M154.9,59.2L131.3,31l9.1,35.6
			c0.3,1.2,1.6,1.7,2.6,1.2l11.3-5.8C155.4,61.5,155.7,60.1,154.9,59.2z M168.1,30.1L131.3,31l33.5,15.1c1.1,0.5,2.3-0.2,2.6-1.3
			l2.5-12.5C170.2,31.2,169.3,30.1,168.1,30.1z M153.5,1.7L131.3,31L164,14.3c1.1-0.5,1.3-1.9,0.6-2.8l-8.2-9.8
			C155.7,0.7,154.2,0.8,153.5,1.7z M122.2-4.6l9.1,35.6l7.3-36c0.2-1.2-0.7-2.2-1.9-2.2L124-6.9C122.8-6.9,122-5.8,122.2-4.6z"/>
		<g id="Group_6_">
			<path id="XMLID_522_" class="st13" d="M27.3,59.4c10.3,12.4,16.7,28.1,19,44.3C41.2,92.5,31,79.5,14.4,69.3c-1-0.6-1-1.9-0.2-2.7
				c3.1-2.6,6.2-5,9.2-7.6C24.6,58.1,26.3,58.2,27.3,59.4z M46.3,103.7c-10.9-12.2-25.4-21-40.8-25.9C4.3,77.5,3,78,2.4,79.1
				c-1.6,2.5-3,5.2-4.2,7.9c-0.5,1.1,0.3,2.3,1.5,2.3C16.2,89.3,33.8,94.8,46.3,103.7z M46.3,103.7c-14.9-6.5-32.2-8.5-48.2-5.5
				c-1.4,0.3-2.4,1.5-2.3,2.9c0.3,3.5,0.6,7,0.8,10.6c0.1,1.2,1.4,1.9,2.4,1.3C12.7,105.4,29.3,101.5,46.3,103.7z M46.3,103.7
				c-16.1,1.6-31.7,8.6-44.2,19.1c-1,0.9-1.3,2.3-0.6,3.5c1.4,2.4,2.8,4.8,4.3,7.2c0.6,1,2.1,1,2.8,0
				C17.4,120.1,31.4,109.3,46.3,103.7z M46.3,103.7C32,113,23.1,127.6,17,143c-0.4,1-0.2,2.2,0.6,2.9c3.3,3.4,6.6,6.7,10,10.1
				c1,1.1,2.8,0.3,2.8-1.2C30.4,136.8,34.8,117.4,46.3,103.7z M45.1,118.4c-0.3-4.7-0.2-10,1.2-14.7c-7.3,14.6-8.7,31.6-5.7,47.6
				c0.3,1.4,1.5,2.3,2.9,2.2c2.8-0.2,5.5-0.2,8.3-0.4c1.2-0.1,1.9-1.3,1.4-2.4C48.3,140.9,45.7,128.9,45.1,118.4z M46.3,103.7
				c-0.2,10.8,5,21.5,9.7,31c2.6,4.8,5.6,9.3,9.3,13.2c0.9,1,2.4,1.1,3.6,0.3c2.4-1.6,4.9-2.9,7.2-4.5c1-0.7,0.9-2.1,0-2.7
				C62.5,132.2,51.4,118.2,46.3,103.7z M94.2,122.9c0.3-1-0.4-2.1-1.5-2.1c-3.8-0.2-11-1.8-12.3-2.1c-9.2-1.7-18.1-4.7-26.2-9.4
				c-1.4-0.8-2.8-1.7-4.2-2.7c-1.1-0.7-3.2-1.7-3.9-2.8c9.6,15.1,24.4,25.6,40.7,31.9c1.5,0.6,3.1-0.2,3.6-1.7
				C91.9,130.2,93.1,126.5,94.2,122.9z M64.1,104.4c-5.9,0.4-12.2-0.2-17.8-0.6c14.7,7.3,31.4,9.5,47.6,7c1.3-0.2,2.4-1.3,2.4-2.7
				c0-3.4-0.1-6.7-0.1-10c0-1.2-1.2-1.9-2.3-1.5C84.4,100.3,74.3,103.7,64.1,104.4z M71.3,87.9c-1.4,1.3-3,2.6-4.4,3.9
				c-5.9,5.2-13.1,8.9-20.6,12c15.8-2.2,31.4-7.9,44.2-17.3c1.1-0.8,1.4-2.3,0.8-3.4c-1.5-3-3.2-5.9-4.7-8.8c-0.6-1.1-2-1.2-2.8-0.2
				C80.1,78.9,76,83.5,71.3,87.9z M46.3,103.7c7.3-5.1,14.3-10.7,20.1-17.9c0.9-1.1,2.7-3.2,3.9-5c3.2-4.8,5.6-9.3,7.6-14.1
				c0.6-1.3,0-2.8-1.2-3.5c-2.4-1.3-4.6-2.4-7-3.7c-1-0.5-2.2,0.1-2.4,1.2C65.2,76.9,56.1,92.4,46.3,103.7z M46.3,103.7
				c7.1-15.1,11.5-32.2,9.6-49c-0.2-1.5-1.5-2.6-3-2.4c-4.1,0.4-8.2,1.1-12.3,1.5c-1.1,0.1-1.8,1.3-1.4,2.3
				C46.3,71,48.1,88.1,46.3,103.7z"/>
		</g>
	</g>
	<g id="Top_Left_Corner_1_" class="st2">
		<path id="XMLID_1307_" class="st16" d="M1028.5,33.4l6,51.7l-22.4-45.8c-0.6-1.1,0-2.5,1.2-2.9l12.4-4.7
			C1027,31.2,1028.4,32,1028.5,33.4z M990.7,55.5l43.9,29.6l-34.3-39.4c-0.8-0.9-2.2-1-3.1-0.1l-6.7,6.5
			C989.4,53.1,989.6,54.7,990.7,55.5z M982.7,80.2l51.8,4.9l-47.9-20.7c-1.2-0.5-2.6,0.2-2.9,1.5l-2.8,11.8
			C980.5,78.9,981.4,80.1,982.7,80.2z M985.9,104.4l48.6-19.3l-52,6c-1.3,0.1-2.1,1.4-1.8,2.7l2.3,9.1
			C983.4,104.2,984.7,104.9,985.9,104.4z M1000.3,132.4l34.3-47.3l-42.6,31.7c-0.8,0.6-1.1,1.6-0.7,2.5l5.3,12.7
			C997.2,133.5,999.3,133.8,1000.3,132.4z M1026.9,136.9l7.6-51.8l-20.8,48c-0.5,1.2,0.1,2.6,1.4,2.9l9.1,2.6
			C1025.5,139,1026.7,138.1,1026.9,136.9z M1053.8,133.7l-19.3-48.6l6,52c0.1,1.3,1.4,2.1,2.7,1.8l9.1-2.3
			C1053.6,136.3,1054.3,134.9,1053.8,133.7z M1077.7,117.6l-43.2-32.5l31.4,47c0.8,1.2,2.6,1.3,3.5,0.1l8.7-11.7
			C1078.9,119.6,1078.7,118.3,1077.7,117.6z M1086.3,92.7l-51.8-7.6l47.6,22.8c1.2,0.6,2.6-0.1,3-1.4l3-11.1
			C1088.4,94.2,1087.6,92.9,1086.3,92.7z M1083.1,65.9l-48.5,19.2l51.6-4.2c1.3-0.1,2.2-1.3,1.9-2.5l-2.2-11
			C1085.7,66.1,1084.3,65.4,1083.1,65.9z M1070.3,47.3l-35.7,37.8l44.9-27.8c1.2-0.7,1.4-2.3,0.4-3.3l-6.5-6.7
			C1072.5,46.4,1071.1,46.4,1070.3,47.3z M1042.2,33.2l-7.6,51.9l26-47.5c0.7-1.3,0-2.8-1.4-3.1l-14.3-3
			C1043.5,31.1,1042.4,31.9,1042.2,33.2z"/>
		<path id="XMLID_1271_" class="st16" d="M915.9,9.2L938.4,36l-31.9-14.4c-1-0.5-1.4-1.8-0.7-2.7l7.3-9.7
			C913.8,8.3,915.2,8.3,915.9,9.2z M907.2,51.9l31.2-16l-35,0.9c-1.1,0-1.9,1.1-1.7,2.2l3,11.8C904.9,51.9,906.2,52.4,907.2,51.9z
			 M931.4,70.3l7-34.3l-21.2,27.9c-0.7,0.9-0.4,2.2,0.7,2.7l11.1,5C930,72,931.2,71.4,931.4,70.3z M960.8,62.8L938.3,36l8.6,33.9
			c0.3,1.1,1.5,1.7,2.5,1.1l10.8-5.5C961.3,65,961.6,63.7,960.8,62.8z M973.4,35.1l-35,0.9l31.9,14.4c1,0.5,2.2-0.1,2.5-1.3
			l2.4-11.9C975.4,36.2,974.5,35.1,973.4,35.1z M959.5,8.1L938.4,36l31.2-16c1-0.5,1.3-1.8,0.5-2.7L962.3,8
			C961.6,7.2,960.2,7.2,959.5,8.1z M929.8,2.1l8.6,33.9l6.9-34.3c0.2-1.1-0.6-2.1-1.8-2.1l-12.1,0.3C930.3-0.1,929.5,1,929.8,2.1z"
			/>
		<g id="Logo_New" class="st4">
			<path id="XMLID_1297_" class="st17" d="M822.6,57c2.1-19.4-6.2-39.6-19.6-53.8c-1-1-0.4-2.7,1-3c7.1-1.4,13.9-1.4,21-2.9
				c1.5-0.3,3.1,0.6,3.6,2.1C834.8,19.2,832.8,40.2,822.6,57z M817,112.9c-3.6-19.2-3.7-39,5.6-55.9c-16.9,10.7-27.7,29.3-30.4,48.9
				c-0.2,1.5,0.8,3,2.3,3.3c4.8,1.2,14.9,3.8,20.1,5.6C815.9,115.4,817.2,114.3,817,112.9z M863.5,96.3c-18.4-7-32.4-22-40.9-39.3
				c-0.6,9.2,1,18.8,4.1,27.8c1.9,5.4,4.6,10.3,7.7,15.2c2.5,3.9,5.3,7.7,8.8,10.8c1.2,1,2.9,1,4.1-0.1c6.2-5.6,12.5-9,16.5-11.1
				C865.1,98.8,864.9,96.8,863.5,96.3z M822.6,57c20-3.4,37.9-15,49.3-31.6c0.9-1.3,0.7-3-0.5-4c-5.5-4.7-10.8-8.8-16.2-13.3
				c-1.1-0.9-2.8-0.3-3,1.1C848.8,28.8,838.6,46.1,822.6,57z M879.5,50c-17.7,8.6-37.8,11.4-57,7c6.9,6.3,15.5,11.1,24.6,14.4
				c5.5,2,11.1,2.9,16.9,3.6c4.7,0.6,9.4,0.8,14,0c1.4-0.2,2.5-1.5,2.5-2.9c0.2-8.7,0.6-13.4,1.6-20.2
				C882.4,50.5,880.9,49.4,879.5,50z M885.4,66.8 M822.6,57c-19.6,2.9-37,15.2-47.5,31.5c-0.8,1.2-2.6,1.1-3.2-0.2
				c-3.1-6.4-4.5-12.9-7.6-19.6c-0.6-1.4-0.1-3,1.2-3.8C783.1,54,803.5,51.6,822.6,57z M768,39.2c19.8-1.6,39.1,5.8,54.6,17.8
				c-3.6-8.6-9.3-16.5-16.1-23.4c-4.1-4.1-8.8-7.3-13.8-10.4c-4-2.5-8.2-4.7-12.8-5.9c-1.5-0.4-3,0.4-3.6,1.8
				c-3.1,7.8-7.3,13.6-9.9,17.2C765.4,37.6,766.4,39.3,768,39.2z"/>
			<path id="XMLID_1296_" class="st18" d="M816.9,1.8c-2.3,1.8-5.7,1.5-7.5-0.7c-1.9-2.2-1.5-5.6,0.7-7.4s5.7-1.5,7.5,0.7
				C819.5-3.4,819.2-0.1,816.9,1.8z"/>
			<path id="XMLID_1295_" class="st19" d="M816.9,1.8c-2.3,1.8-5.7,1.5-7.5-0.7c-1.9-2.2-1.5-5.6,0.7-7.4s5.7-1.5,7.5,0.7
				C819.5-3.4,819.2-0.1,816.9,1.8z"/>
		</g>
		<g id="Group" class="st4">
			<path id="XMLID_1060_" class="st17" d="M675.6-36.1c11.5,13.8,18.6,31.4,21.2,49.4c-5.7-12.5-17.1-27-35.6-38.4
				c-1.1-0.7-1.2-2.2-0.2-3c3.4-2.9,6.9-5.6,10.2-8.4C672.6-37.6,674.5-37.4,675.6-36.1z M696.8,13.3
				c-12.2-13.6-28.3-23.5-45.5-28.8c-1.3-0.4-2.8,0.2-3.5,1.3c-1.7,2.8-3.3,5.8-4.7,8.8c-0.5,1.2,0.3,2.6,1.7,2.6
				C663.3-2.8,682.9,3.3,696.8,13.3z M696.8,13.3c-16.7-7.3-35.9-9.4-53.7-6.1c-1.5,0.3-2.6,1.7-2.5,3.2c0.3,4,0.6,7.8,0.9,11.8
				c0.1,1.3,1.6,2.1,2.7,1.5C659.4,15.2,677.8,10.9,696.8,13.3z M696.8,13.3c-17.9,1.8-35.4,9.6-49.2,21.3c-1.1,1-1.4,2.6-0.7,3.9
				c1.5,2.7,3.1,5.3,4.8,8c0.7,1.1,2.3,1.1,3.1,0C664.6,31.6,680.2,19.5,696.8,13.3z M696.8,13.3c-16,10.3-25.9,26.6-32.7,43.8
				c-0.4,1.1-0.2,2.4,0.7,3.3c3.7,3.8,7.4,7.5,11.1,11.3c1.2,1.2,3.1,0.4,3.1-1.3C679.1,50.2,684,28.6,696.8,13.3z M695.5,29.7
				c-0.3-5.3-0.2-11.2,1.4-16.4c-8.2,16.3-9.7,35.3-6.4,53c0.3,1.5,1.7,2.6,3.2,2.5c3.1-0.2,6.1-0.2,9.2-0.4
				c1.3-0.1,2.1-1.5,1.5-2.6C699,54.8,696.2,41.4,695.5,29.7z M696.8,13.3c-0.2,12.1,5.6,24,10.8,34.5c2.9,5.3,6.3,10.4,10.3,14.7
				c1,1.1,2.7,1.2,4,0.4c2.6-1.8,5.4-3.3,8.1-5.1c1.1-0.7,1.1-2.3,0-3C714.9,45,702.5,29.4,696.8,13.3z M750.3,34.6
				c0.4-1.1-0.4-2.3-1.6-2.4c-4.2-0.2-12.3-2.1-13.7-2.3c-10.2-1.9-20.2-5.2-29.2-10.5c-1.6-0.9-3.2-1.9-4.7-3
				c-1.2-0.8-3.5-1.9-4.3-3.2c10.7,16.9,27.2,28.6,45.4,35.6c1.6,0.6,3.5-0.2,4-1.9C747.6,42.9,749,38.8,750.3,34.6z M716.7,14
				c-6.6,0.4-13.6-0.3-19.8-0.7c16.3,8.2,35,10.6,53.1,7.8c1.5-0.2,2.6-1.5,2.6-3c0-3.8-0.1-7.5-0.2-11.2c0-1.3-1.3-2.2-2.5-1.7
				C739.3,9.4,728.1,13.3,716.7,14z M724.7-4.4c-1.6,1.5-3.3,2.9-4.9,4.3c-6.6,5.8-14.6,9.9-22.9,13.4c17.6-2.4,35-8.8,49.3-19.3
				c1.2-0.9,1.6-2.5,0.9-3.8c-1.7-3.3-3.6-6.5-5.3-9.8c-0.6-1.2-2.3-1.3-3.1-0.3C734.5-14.4,729.9-9.2,724.7-4.4z M696.8,13.3
				c8.1-5.7,16-12,22.4-19.9c1-1.2,3-3.5,4.4-5.6c3.6-5.4,6.2-10.4,8.5-15.7c0.6-1.5,0.1-3.2-1.3-3.9c-2.6-1.4-5.2-2.7-7.8-4.1
				c-1.1-0.6-2.5,0.1-2.7,1.4C717.9-16.7,707.8,0.7,696.8,13.3z M696.8,13.3c7.9-16.9,12.8-35.9,10.7-54.7c-0.2-1.7-1.7-2.9-3.4-2.7
				c-4.6,0.5-9.1,1.2-13.7,1.6c-1.3,0.1-2,1.4-1.5,2.6C696.8-23.1,698.9-4.1,696.8,13.3z"/>
		</g>
		<path id="XMLID_1274_" class="st16" d="M568.2,86.4l39.1,46.6l-55.4-25c-1.8-0.8-2.4-3.1-1.2-4.6l12.7-16.8
			C564.6,84.9,566.9,84.9,568.2,86.4z M553,160.6l54.1-27.7l-60.8,1.5c-2,0-3.4,1.9-2.9,3.8l5.2,20.4
			C549.2,160.5,551.3,161.5,553,160.6z M595.1,192.4l12.1-59.6l-36.7,48.4c-1.2,1.6-0.6,3.8,1.2,4.6l19.2,8.7
			C592.6,195.4,594.7,194.4,595.1,192.4z M646.2,179.5l-39.1-46.6l15,58.9c0.5,1.9,2.6,2.9,4.4,2l18.8-9.6
			C647,183.2,647.5,181,646.2,179.5z M668,131.5l-60.8,1.5l55.4,25c1.8,0.8,3.9-0.3,4.3-2.2l4.2-20.7
			C671.4,133.2,669.9,131.4,668,131.5z M643.9,84.5l-36.7,48.4l54.1-27.7c1.7-0.9,2.2-3.2,1-4.7l-13.5-16.2
			C647.5,82.9,645.1,82.9,643.9,84.5z M592.2,74l15,58.9l12.1-59.6c0.4-1.9-1.1-3.7-3.1-3.7l-21.1,0.5
			C593.2,70.3,591.8,72.1,592.2,74z"/>
		<path id="XMLID_1280_" class="st16" d="M446.3,35.1l26.5,31.6l-37.6-17c-1.2-0.5-1.6-2.1-0.8-3.2l8.7-11.4
			C443.9,34.1,445.4,34.1,446.3,35.1z M436,85.5l36.8-18.8l-41.3,1c-1.3,0-2.3,1.3-2,2.6l3.5,13.9C433.4,85.5,434.8,86.1,436,85.5z
			 M464.6,107.2l8.2-40.5l-24.9,32.9c-0.8,1.1-0.4,2.6,0.8,3.2l13.1,5.9C462.9,109.2,464.3,108.5,464.6,107.2z M499.3,98.4
			l-26.5-31.6l10.2,40c0.3,1.3,1.8,1.9,3,1.3l12.7-6.5C499.9,100.9,500.2,99.4,499.3,98.4z M514.1,65.8l-41.3,1l37.6,17
			c1.2,0.5,2.6-0.2,2.9-1.5l2.8-14C516.5,66.9,515.5,65.7,514.1,65.8z M497.8,33.9l-24.9,32.9l36.8-18.8c1.2-0.6,1.5-2.2,0.6-3.2
			l-9.2-11C500.2,32.8,498.6,32.8,497.8,33.9z M462.7,26.7l10.2,40l8.2-40.5c0.3-1.3-0.8-2.5-2.1-2.5l-14.3,0.4
			C463.3,24.2,462.3,25.4,462.7,26.7z"/>
		<path id="XMLID_1505_" class="st16" d="M352.6,46.8c13.6-7.2,23.3-21.5,26.8-36.4c0.3-1.1,1.6-1.5,2.4-0.7c4,3.9,7,8.4,11,12.3
			c0.9,0.9,1,2.2,0.2,3.2C382.7,38,368,46,352.6,46.8z M313.5,67.8c11-10.8,24-19.5,39.1-21c-14.3-6.2-31.2-5-45.3,2
			c-1.1,0.5-1.6,1.8-1.2,3c1.3,3.6,4,11.3,5,15.4C311.4,68.2,312.7,68.6,313.5,67.8z M344.5,90.4c-3.4-15,0.4-30.6,8.1-43.7
			c-6.3,3.7-11.9,8.9-16.5,14.9c-2.8,3.6-4.8,7.5-6.6,11.7c-1.5,3.3-2.8,6.8-3.3,10.4c-0.2,1.2,0.6,2.3,1.8,2.6
			c6.4,1.5,11.3,4.1,14.5,5.7C343.5,92.6,344.8,91.6,344.5,90.4z M352.6,46.8c10.9,11.4,26.2,17.8,42.1,17.9c1.2,0,2.2-0.9,2.4-2.1
			c0.7-5.6,1.1-10.8,1.7-16.3c0.1-1.1-1-1.9-2-1.5C382.4,51.3,366.7,52.3,352.6,46.8z M381.8,80.4c-13.3-7.6-23.8-19.4-29.2-33.7
			c-1.1,7.2-0.6,14.8,1.2,22.2c1.1,4.4,2.9,8.4,4.9,12.5c1.7,3.3,3.6,6.4,6,9.1c0.8,0.8,2,1,3,0.3c5.8-3.7,9.1-5.5,14-7.9
			C382.7,82.4,382.8,81,381.8,80.4z M373.3,91.6 M352.6,46.8c-10.4-11.4-26-17.1-41.2-16.7c-1.1,0-1.8-1.2-1.3-2.1
			c2.9-4.8,6.5-8.6,9.6-13.6c0.6-1,1.9-1.4,3-0.9C337.5,20,347.9,32.1,352.6,46.8z M340.6,3.8c9.6,12.1,13.1,27.8,12,43
			c4.1-6.1,6.8-13.3,8.3-20.7c0.9-4.5,1-8.9,0.8-13.4c-0.1-3.7-0.5-7.4-1.7-10.9c-0.4-1.1-1.6-1.8-2.8-1.5
			c-6.4,1.4-12.1,1.3-15.6,1.2C340.5,1.4,339.8,2.8,340.6,3.8z"/>
		<path id="XMLID_1357_" class="st16" d="M211.5,43.7l30.3,31.8l-38.4-19.4c-0.9-0.5-1.3-1.7-0.7-2.6l5.9-9.5
			C209.3,43,210.7,42.9,211.5,43.7z M197.2,77.8l44.6-2.3l-43.1-9.1c-1-0.2-2,0.5-2.2,1.5l-1.2,7.8
			C195.2,76.9,196.1,77.9,197.2,77.8z M204.5,98.6l37.4-23.1L199,85.9c-1.1,0.3-1.7,1.4-1.2,2.5l4.1,9.4
			C202.3,98.8,203.5,99.1,204.5,98.6z M218.9,113.2l23-37.7L209.9,106c-0.8,0.8-0.7,2,0.1,2.7l6.2,5
			C217.1,114.4,218.3,114.1,218.9,113.2z M242.8,124.8l-1-49.3l-12.6,43c-0.2,0.8,0.1,1.7,0.8,2.1l10,5.8
			C241.3,127.1,242.9,126.2,242.8,124.8z M263.1,114.2l-21.2-38.8l10.4,42.9c0.3,1.1,1.4,1.7,2.4,1.3l7.4-2.9
			C263.1,116.4,263.6,115.2,263.1,114.2z M279.6,98.4l-37.7-23l30.5,31.9c0.8,0.8,2,0.7,2.7-0.1l5-6.2
			C280.7,100.3,280.5,99,279.6,98.4z M287.5,75.4l-45.6,0.1l45.1,15.7c1.2,0.4,2.4-0.5,2.4-1.7l0-12.3
			C289.3,76.2,288.5,75.4,287.5,75.4z M280.6,54.3l-38.8,21.2l43.6-8.8c1.1-0.2,1.7-1.4,1.3-2.4l-3.6-9
			C282.8,54.2,281.6,53.8,280.6,54.3z M264.8,37.8l-22.9,37.6l32.7-29.1c0.8-0.7,0.8-2,0-2.7l-7-6.3
			C266.7,36.7,265.4,36.9,264.8,37.8z M246.7,31.8l-4.8,43.6L258,33.9c0.4-1.1-0.3-2.3-1.4-2.4l-7.8-1.2
			C247.7,30.1,246.8,30.8,246.7,31.8z M220.6,36.6l21.3,38.9l-6.7-45.2c-0.2-1.2-1.5-1.9-2.6-1.4l-11.2,5.2
			C220.5,34.5,220.1,35.7,220.6,36.6z"/>
		<path id="XMLID_1349_" class="st16" d="M107.7,2.8L131.3,31L97.8,15.9c-1.1-0.5-1.4-1.9-0.7-2.8l7.7-10.2
			C105.5,2,106.9,1.9,107.7,2.8z M98.5,47.7L131.3,31l-36.8,0.9c-1.2,0-2,1.2-1.7,2.3l3.1,12.4C96.2,47.7,97.5,48.3,98.5,47.7z
			 M124,67l7.3-36l-22.2,29.3c-0.7,0.9-0.4,2.3,0.7,2.8l11.6,5.2C122.5,68.8,123.7,68.2,124,67z M154.9,59.2L131.3,31l9.1,35.6
			c0.3,1.2,1.6,1.7,2.6,1.2l11.3-5.8C155.4,61.5,155.7,60.1,154.9,59.2z M168.1,30.1L131.3,31l33.5,15.1c1.1,0.5,2.3-0.2,2.6-1.3
			l2.5-12.5C170.2,31.2,169.3,30.1,168.1,30.1z M153.5,1.7L131.3,31L164,14.3c1.1-0.5,1.3-1.9,0.6-2.8l-8.2-9.8
			C155.7,0.7,154.2,0.8,153.5,1.7z M122.2-4.6l9.1,35.6l7.3-36c0.2-1.2-0.7-2.2-1.9-2.2L124-6.9C122.8-6.9,122-5.8,122.2-4.6z"/>
		<g id="Group_4_" class="st4">
			<path id="XMLID_836_" class="st17" d="M27.3,59.4c10.3,12.4,16.7,28.1,19,44.3C41.2,92.5,31,79.5,14.4,69.3c-1-0.6-1-1.9-0.2-2.7
				c3.1-2.6,6.2-5,9.2-7.6C24.6,58.1,26.3,58.2,27.3,59.4z M46.3,103.7c-10.9-12.2-25.4-21-40.8-25.9C4.3,77.5,3,78,2.4,79.1
				c-1.6,2.5-3,5.2-4.2,7.9c-0.5,1.1,0.3,2.3,1.5,2.3C16.2,89.3,33.8,94.8,46.3,103.7z M46.3,103.7c-14.9-6.5-32.2-8.5-48.2-5.5
				c-1.4,0.3-2.4,1.5-2.3,2.9c0.3,3.5,0.6,7,0.8,10.6c0.1,1.2,1.4,1.9,2.4,1.3C12.7,105.4,29.3,101.5,46.3,103.7z M46.3,103.7
				c-16.1,1.6-31.7,8.6-44.2,19.1c-1,0.9-1.3,2.3-0.6,3.5c1.4,2.4,2.8,4.8,4.3,7.2c0.6,1,2.1,1,2.8,0
				C17.4,120.1,31.4,109.3,46.3,103.7z M46.3,103.7C32,113,23.1,127.6,17,143c-0.4,1-0.2,2.2,0.6,2.9c3.3,3.4,6.6,6.7,10,10.1
				c1,1.1,2.8,0.3,2.8-1.2C30.4,136.8,34.8,117.4,46.3,103.7z M45.1,118.4c-0.3-4.7-0.2-10,1.2-14.7c-7.3,14.6-8.7,31.6-5.7,47.6
				c0.3,1.4,1.5,2.3,2.9,2.2c2.8-0.2,5.5-0.2,8.3-0.4c1.2-0.1,1.9-1.3,1.4-2.4C48.3,140.9,45.7,128.9,45.1,118.4z M46.3,103.7
				c-0.2,10.8,5,21.5,9.7,31c2.6,4.8,5.6,9.3,9.3,13.2c0.9,1,2.4,1.1,3.6,0.3c2.4-1.6,4.9-2.9,7.2-4.5c1-0.7,0.9-2.1,0-2.7
				C62.5,132.2,51.4,118.2,46.3,103.7z M94.2,122.9c0.3-1-0.4-2.1-1.5-2.1c-3.8-0.2-11-1.8-12.3-2.1c-9.2-1.7-18.1-4.7-26.2-9.4
				c-1.4-0.8-2.8-1.7-4.2-2.7c-1.1-0.7-3.2-1.7-3.9-2.8c9.6,15.1,24.4,25.6,40.7,31.9c1.5,0.6,3.1-0.2,3.6-1.7
				C91.9,130.2,93.1,126.5,94.2,122.9z M64.1,104.4c-5.9,0.4-12.2-0.2-17.8-0.6c14.7,7.3,31.4,9.5,47.6,7c1.3-0.2,2.4-1.3,2.4-2.7
				c0-3.4-0.1-6.7-0.1-10c0-1.2-1.2-1.9-2.3-1.5C84.4,100.3,74.3,103.7,64.1,104.4z M71.3,87.9c-1.4,1.3-3,2.6-4.4,3.9
				c-5.9,5.2-13.1,8.9-20.6,12c15.8-2.2,31.4-7.9,44.2-17.3c1.1-0.8,1.4-2.3,0.8-3.4c-1.5-3-3.2-5.9-4.7-8.8c-0.6-1.1-2-1.2-2.8-0.2
				C80.1,78.9,76,83.5,71.3,87.9z M46.3,103.7c7.3-5.1,14.3-10.7,20.1-17.9c0.9-1.1,2.7-3.2,3.9-5c3.2-4.8,5.6-9.3,7.6-14.1
				c0.6-1.3,0-2.8-1.2-3.5c-2.4-1.3-4.6-2.4-7-3.7c-1-0.5-2.2,0.1-2.4,1.2C65.2,76.9,56.1,92.4,46.3,103.7z M46.3,103.7
				c7.1-15.1,11.5-32.2,9.6-49c-0.2-1.5-1.5-2.6-3-2.4c-4.1,0.4-8.2,1.1-12.3,1.5c-1.1,0.1-1.8,1.3-1.4,2.3
				C46.3,71,48.1,88.1,46.3,103.7z"/>
		</g>
	</g>
</g>
<g id="XMLID_273_">
</g>
<g id="XMLID_274_">
</g>
<g id="XMLID_395_">
</g>
<g id="XMLID_399_">
</g>
<g id="XMLID_400_">
</g>
<g id="XMLID_401_">
</g>
<g id="XMLID_419_">
</g>
<g id="XMLID_420_">
</g>
<g id="XMLID_421_">
</g>
<g id="XMLID_422_">
</g>
<g id="XMLID_423_">
</g>
<g id="XMLID_424_">
</g>
<g id="XMLID_425_">
</g>
<g id="XMLID_426_">
</g>
<g id="XMLID_427_">
</g>
</svg>
